<svg class="animated" id="freepik_stories-breast-cancer-research" xmlns="http://www.w3.org/2000/svg" viewBox="0 0 500 500" version="1.1" xmlns:xlink="http://www.w3.org/1999/xlink" xmlns:svgjs="http://svgjs.com/svgjs"><style>svg#freepik_stories-breast-cancer-research:not(.animated) .animable {opacity: 0;}svg#freepik_stories-breast-cancer-research.animated #freepik--background-complete--inject-21 {animation: 6s Infinite  linear shake;animation-delay: 0s;}svg#freepik_stories-breast-cancer-research.animated #freepik--Ribbon--inject-21 {animation: 1.5s Infinite  linear floating;animation-delay: 0s;}svg#freepik_stories-breast-cancer-research.animated #freepik--Tubes--inject-21 {animation: 1.5s Infinite  linear floating;animation-delay: 0s;}            @keyframes shake {                10%, 90% {                    transform: translate3d(-1px, 0, 0);                  }                  20%, 80% {                    transform: translate3d(2px, 0, 0);                  }                  30%, 50%, 70% {                    transform: translate3d(-4px, 0, 0);                  }                  40%, 60% {                    transform: translate3d(4px, 0, 0);                  }            }                    @keyframes floating {                0% {                    opacity: 1;                    transform: translateY(0px);                }                50% {                    transform: translateY(-10px);                }                100% {                    opacity: 1;                    transform: translateY(0px);                }            }        </style><g id="freepik--background-complete--inject-21" class="animable" style="transform-origin: 262.064px 252.377px;"><path d="M391.87,260.74c.11,1.56.51,3.33,1.89,4.08a3.53,3.53,0,0,0,4-.85,10.28,10.28,0,0,0,2.14-3.75,13.05,13.05,0,0,0,1.63,9.38c.56.93,1.51,1.88,2.56,1.63a2.82,2.82,0,0,0,1.59-1.57,33.47,33.47,0,0,0,3.24-8.47,9.51,9.51,0,0,0,2.84,3.37,3.24,3.24,0,0,0,4.08-.31,4.48,4.48,0,0,0,.81-2.27,32.12,32.12,0,0,0-1.56-15.43c-.94-2.61-2.3-5.2-4.58-6.79s-5.48-3-7.56-1.12l.66-.42A24.94,24.94,0,0,0,391.87,260.74Z" style="fill: rgb(245, 245, 245); transform-origin: 404.406px 254.506px;" id="elam0ttjhyhwt" class="animable"></path><path d="M405.06,237.81a1.18,1.18,0,0,1,0,.25c0,.19,0,.42-.07.71s-.08.68-.11,1.11-.09.93-.11,1.48c-.06,1.1-.08,2.41,0,3.86a43.94,43.94,0,0,0,.47,4.7,42.62,42.62,0,0,0,1.05,4.61,37.23,37.23,0,0,0,1.29,3.64c.2.51.42,1,.59,1.36s.34.74.48,1l.31.64a.76.76,0,0,1,.09.23,1.37,1.37,0,0,1-.13-.21c-.1-.16-.21-.37-.35-.61a10,10,0,0,1-.52-1c-.19-.4-.42-.84-.63-1.35a34.75,34.75,0,0,1-1.35-3.65A38.16,38.16,0,0,1,405,250a39.68,39.68,0,0,1-.46-4.73,36.15,36.15,0,0,1,.09-3.88c0-.55.09-1,.14-1.48s.1-.81.15-1.12l.12-.7A.81.81,0,0,1,405.06,237.81Z" style="fill: rgb(224, 224, 224); transform-origin: 406.787px 249.605px;" id="ele1grt9vzwmo" class="animable"></path><path d="M405,248.87a2.34,2.34,0,0,1-.14.5c-.1.31-.26.77-.46,1.32-.41,1.12-1,2.64-1.77,4.29s-1.49,3.11-2,4.15c-.29.52-.52.94-.69,1.23a1.86,1.86,0,0,1-.29.43,2.62,2.62,0,0,1,.2-.48l.62-1.26c.52-1.06,1.24-2.53,2-4.18s1.37-3.15,1.82-4.24l.54-1.3A1.71,1.71,0,0,1,405,248.87Z" style="fill: rgb(224, 224, 224); transform-origin: 402.325px 254.83px;" id="el5g0eixwre49" class="animable"></path><path d="M440.93,263a26.76,26.76,0,0,0-22.15-20.69,27,27,0,0,0,22.34,22.62" style="fill: rgb(235, 235, 235); transform-origin: 429.95px 253.62px;" id="elbv8z4vzo3c7" class="animable"></path><path d="M435,259.19a5,5,0,0,0-.68-.62c-.45-.38-1.1-.93-1.89-1.62-1.59-1.38-3.73-3.35-5.93-5.68s-4-4.59-5.31-6.26c-.65-.83-1.16-1.51-1.51-2a4.77,4.77,0,0,0-.57-.72,4,4,0,0,0,.46.8c.31.49.8,1.2,1.41,2a65.07,65.07,0,0,0,5.26,6.35,64.32,64.32,0,0,0,6,5.63c.82.67,1.49,1.19,2,1.54A4.8,4.8,0,0,0,435,259.19Z" style="fill: rgb(224, 224, 224); transform-origin: 427.055px 250.74px;" id="elcu0zzp3gefm" class="animable"></path><path d="M438.63,380.26l4.53,4.95a7.55,7.55,0,0,1,1.67,7.24L427.74,450.6a11,11,0,0,0,10.58,14.13h32.17a11.66,11.66,0,0,0,11.15-15.11L463.8,392a7.58,7.58,0,0,1,1.79-7.51l4.06-4.18Z" style="fill: rgb(245, 245, 245); transform-origin: 454.724px 422.495px;" id="el0c1mm7xfowa7" class="animable"></path><path d="M438.63,380.26l31-.13h.29l-.2.22-3.09,3.19a20.69,20.69,0,0,0-1.55,1.69,7.47,7.47,0,0,0-1.11,6.84c.5,1.62,1,3.27,1.54,5,2.1,6.77,4.38,14.13,6.81,22s5,16.13,7.68,24.79c.34,1.08.67,2.16,1,3.26l.51,1.64c.18.55.34,1.1.47,1.68a12.13,12.13,0,0,1,.32,3.51l-.11.88-.05.44-.11.44-.21.86-.3.85a11.84,11.84,0,0,1-11.35,7.6H438.35a11.23,11.23,0,0,1-11.23-11.63c0-.48.1-1,.15-1.44s.21-.94.33-1.4c.27-.9.53-1.8.79-2.69q.8-2.67,1.56-5.27l3-10.08c1.92-6.5,3.71-12.55,5.34-18.08l4.42-14.92q1-3.3,1.81-6.12c.14-.47.29-.93.39-1.38a7.79,7.79,0,0,0,.17-1.35,7.47,7.47,0,0,0-.33-2.49,7.59,7.59,0,0,0-1-2,14.42,14.42,0,0,0-1.29-1.53l-2.11-2.35-1.71-1.91c.18.18.68.72,1.79,1.91l2.13,2.28a16,16,0,0,1,1.3,1.52,7.46,7.46,0,0,1,1,2.06,7.73,7.73,0,0,1,.36,2.54,8.39,8.39,0,0,1-.17,1.38c-.1.46-.24.92-.38,1.39l-1.78,6.13c-1.29,4.4-2.75,9.4-4.36,14.93s-3.4,11.6-5.3,18.1q-1.43,4.89-3,10.09-.76,2.6-1.55,5.27a23.22,23.22,0,0,0-1.25,5.44,10.87,10.87,0,0,0,10.87,11.24H470.2a11.45,11.45,0,0,0,11-7.35l.29-.82.21-.84.1-.42,0-.42.1-.86a11.68,11.68,0,0,0-.3-3.39c-.12-.56-.29-1.11-.46-1.66l-.51-1.64c-.34-1.09-.68-2.18-1-3.26-2.67-8.66-5.24-17-7.65-24.79s-4.69-15.19-6.77-22c-.53-1.7-1-3.35-1.53-5a7.72,7.72,0,0,1,0-5,7.53,7.53,0,0,1,1.14-2.13,21.92,21.92,0,0,1,1.58-1.72c1.06-1.09,2.1-2.15,3.09-3.18l.1.21Z" style="fill: rgb(224, 224, 224); transform-origin: 454.716px 422.577px;" id="elvvdcho7ufhn" class="animable"></path><path d="M469.07,416.14a19.75,19.75,0,0,1-9.63-.22c-3-.83-5.81-2.39-8.79-3.38s-6.38-1.37-9.15.1l-10.22,37a9.36,9.36,0,0,0,9,11.85h28.84a9.37,9.37,0,0,0,9-11.82Z" style="fill: rgb(224, 224, 224); transform-origin: 454.694px 436.577px;" id="elqkxr20m6dt" class="animable"></path><g id="el4jktt2caxpp"><g style="opacity: 0.3; transform-origin: 441.127px 437.413px;" class="animable"><path d="M444,457.94c0,.11-.69.21-1.84-.19a7.74,7.74,0,0,1-3.78-3.38,10.26,10.26,0,0,1-1.24-3.34,15.33,15.33,0,0,1-.15-4,60.91,60.91,0,0,1,1.82-8.68c3-12,5.92-21.69,6.44-21.56s-1.52,10-4.55,22a79,79,0,0,0-1.92,8.39,14,14,0,0,0,0,3.59,9.35,9.35,0,0,0,.85,2.94,8.12,8.12,0,0,0,2.9,3.35C443.44,457.62,444.06,457.78,444,457.94Z" style="fill: rgb(255, 255, 255); transform-origin: 441.127px 437.413px;" id="elg7qpghlei0e" class="animable"></path></g></g><rect x="332.07" y="39.77" width="112.39" height="117.16" style="fill: rgb(224, 224, 224); transform-origin: 388.265px 98.35px;" id="elltxssa5m0ck" class="animable"></rect><rect x="324.46" y="39.77" width="112.39" height="117.16" style="fill: rgb(245, 245, 245); transform-origin: 380.655px 98.35px;" id="elz0eh6fcp" class="animable"></rect><path d="M436.89,157H324.43V39.73H436.89Zm-112.39-.07H436.82V39.8H324.5Z" style="fill: rgb(224, 224, 224); transform-origin: 380.66px 98.365px;" id="eluqg7oad48c" class="animable"></path><rect x="339.57" y="55.52" width="82.17" height="85.66" style="fill: rgb(255, 255, 255); transform-origin: 380.655px 98.35px;" id="elh6k28cchqos" class="animable"></rect><path d="M339.57,141.75a14.17,14.17,0,0,1-2,2.35c-1.31,1.39-3.16,3.26-5.22,5.3s-4,3.85-5.37,5.14a13.14,13.14,0,0,1-2.38,2,12.79,12.79,0,0,1,2-2.35c1.31-1.39,3.16-3.27,5.24-5.31s4-3.86,5.37-5.15A12.82,12.82,0,0,1,339.57,141.75Z" style="fill: rgb(224, 224, 224); transform-origin: 332.085px 149.145px;" id="elcnv6cj6giil" class="animable"></path><path d="M421.74,141.54a12.62,12.62,0,0,1,2.36,2c1.39,1.32,3.26,3.16,5.3,5.23s3.85,4,5.13,5.36a13.41,13.41,0,0,1,2,2.38,13.62,13.62,0,0,1-2.35-2c-1.38-1.31-3.26-3.16-5.3-5.23s-3.86-4-5.15-5.38A13.4,13.4,0,0,1,421.74,141.54Z" style="fill: rgb(224, 224, 224); transform-origin: 429.135px 149.025px;" id="eles8gu93zjor" class="animable"></path><path d="M421.52,55.75a12.48,12.48,0,0,1,2-2.36c1.31-1.39,3.15-3.26,5.22-5.3s4-3.85,5.37-5.14a12.8,12.8,0,0,1,2.37-2,13,13,0,0,1-2,2.34c-1.32,1.39-3.17,3.27-5.24,5.31s-4,3.86-5.38,5.15A14,14,0,0,1,421.52,55.75Z" style="fill: rgb(224, 224, 224); transform-origin: 429px 48.35px;" id="ellsmo1qdz7k" class="animable"></path><path d="M339.34,56a14.17,14.17,0,0,1-2.35-2c-1.39-1.31-3.26-3.16-5.3-5.23s-3.85-4-5.14-5.36a13.41,13.41,0,0,1-2-2.38,12.79,12.79,0,0,1,2.35,2c1.39,1.31,3.27,3.16,5.31,5.23s3.86,4,5.15,5.38A12.44,12.44,0,0,1,339.34,56Z" style="fill: rgb(224, 224, 224); transform-origin: 331.945px 48.515px;" id="elw0bd6o6cj8" class="animable"></path><path d="M421.52,141.18a3.75,3.75,0,0,1,0-.42c0-.29,0-.69,0-1.2q0-1.6,0-4.62c0-4.06-.05-10-.09-17.46,0-15-.09-36.37-.16-62l.32.31-81.94.05h0l.36-.36c0,31.44,0,60.85-.05,85.66l-.31-.32,59.34.16,16.66.08,4.41,0,1.14,0a1.87,1.87,0,0,1,.4,0h-.36l-1.11,0-4.35,0-16.6.08-59.53.16h-.31v-.31c0-24.81,0-54.22-.05-85.66v-.37h.37l81.94.05h.32v.32c-.07,25.67-.13,47.11-.17,62.17,0,7.46-.06,13.34-.08,17.38,0,2,0,3.5,0,4.56,0,.5,0,.88,0,1.17S421.52,141.18,421.52,141.18Z" style="fill: rgb(224, 224, 224); transform-origin: 380.605px 98.13px;" id="el1003xbf0wdzj" class="animable"></path><rect x="366.95" y="84.64" width="27.42" height="27.42" style="fill: rgb(235, 235, 235); transform-origin: 380.66px 98.35px;" id="el5pet0jcdrc" class="animable"></rect><rect x="41.81" y="198.88" width="140.68" height="130.43" style="fill: rgb(235, 235, 235); transform-origin: 112.15px 264.095px;" id="el5ii3kauhcng" class="animable"></rect><rect x="51.04" y="207.93" width="121.57" height="112.94" style="fill: rgb(255, 255, 255); transform-origin: 111.825px 264.4px;" id="ele5z1q5jlg25" class="animable"></rect><path d="M172.64,320.89H51v-113H172.64Zm-121.57-.05H172.59V208H51.07Z" style="fill: rgb(224, 224, 224); transform-origin: 111.82px 264.39px;" id="el66la8zg4zz7" class="animable"></path><path d="M142.09,263.26c1.12,7.6,5,34.15,5.72,37.21.34,1.57,2.56,10.66,4.95,20.39h15.48c-.82-9.1-1.58-17.72-1.74-20.39-.39-6.34-4.55-16.23-4.55-16.23s-2.13-37.54-3.57-47.35c-2-13.35-15.92-16-14.33-15.47L123,215.52l-1.07-7.59H99l1.18,7.59-23.23,9.4,0-.08s-9.29,3.09-11.3,15.74c-1.56,9.79-3,47.65-3,47.65s-4.15,9.9-4.54,16.24c-.15,2.4-.48,9-.84,16.39H72.74c1.94-7.93,3.64-15,4-16.39.78-3.59,4.61-29.07,4.61-29.07l.13-2.32c1.61,10.44,3.33,21.06,3.33,21.06l-4.87,26.72h39.53l.62,0,28.43,0-9.2-31.16Z" style="fill: rgb(245, 245, 245); transform-origin: 112.755px 264.395px;" id="elk2a8qgx5eyq" class="animable"></path><path d="M84.76,294.14c-.14,0-1.84-9.84-3.78-22S77.57,250,77.71,250s1.84,9.83,3.78,22S84.9,294.11,84.76,294.14Z" style="fill: rgb(224, 224, 224); transform-origin: 81.235px 272.07px;" id="eljsz70fp9n6" class="animable"></path><path d="M144.17,242.68a2.79,2.79,0,0,1,0,.47c0,.38-.07.83-.11,1.37-.11,1.26-.27,2.94-.47,5-.42,4.22-1,10-1.74,16.46s-1.39,12.24-1.9,16.44l-.63,5c-.08.53-.15,1-.2,1.35s-.09.47-.11.46a2.79,2.79,0,0,1,0-.47c0-.37.06-.82.11-1.36.11-1.27.27-2.95.46-5,.42-4.21,1-10,1.75-16.46s1.39-12.24,1.9-16.44c.26-2,.47-3.72.63-5,.08-.53.15-1,.2-1.35S144.15,242.67,144.17,242.68Z" style="fill: rgb(224, 224, 224); transform-origin: 141.59px 265.955px;" id="eltu04vakka5m" class="animable"></path><path d="M110.74,265.22a1.74,1.74,0,0,1,.05.47,10.62,10.62,0,0,1,0,1.35,15.83,15.83,0,0,1-1.11,4.86,16.16,16.16,0,0,1-4.23,6.06,14.19,14.19,0,0,1-3.72,2.35,14.8,14.8,0,0,1-4.59,1.14,14.12,14.12,0,0,1-8.74-2.17,15.68,15.68,0,0,1-5-5.38,15.36,15.36,0,0,1-1.76-4.67,12.16,12.16,0,0,1-.2-1.34,1.67,1.67,0,0,1,0-.47s.12.64.41,1.77a16.55,16.55,0,0,0,1.88,4.52,15.63,15.63,0,0,0,5,5.17,14,14,0,0,0,16.48-1.29,16,16,0,0,0,4.2-5.83,17.06,17.06,0,0,0,1.26-4.73C110.71,265.87,110.68,265.22,110.74,265.22Z" style="fill: rgb(224, 224, 224); transform-origin: 96.1174px 273.358px;" id="ela2o25akt3yc" class="animable"></path><path d="M140.79,269a1.25,1.25,0,0,1,0,.42,8,8,0,0,1-.15,1.2,10.33,10.33,0,0,1-1.85,4,11.81,11.81,0,0,1-5.27,3.89,16.16,16.16,0,0,1-8,.85,14.48,14.48,0,0,1-7.35-3.2,12.8,12.8,0,0,1-3.73-5.39,11.46,11.46,0,0,1-.72-4.36,8.66,8.66,0,0,1,.12-1.2,1.82,1.82,0,0,1,.1-.41s0,.58,0,1.61a12.49,12.49,0,0,0,.86,4.23,12.7,12.7,0,0,0,3.7,5.15,14.07,14.07,0,0,0,7.12,3.05,16,16,0,0,0,7.73-.78,11.62,11.62,0,0,0,5.15-3.67,10.83,10.83,0,0,0,1.94-3.84C140.71,269.54,140.74,269,140.79,269Z" style="fill: rgb(224, 224, 224); transform-origin: 127.261px 272.166px;" id="elwyucxrgkdt" class="animable"></path><polygon points="235.62 44.33 235.62 167.22 76.9 167.22 71.18 45.19 235.62 44.33" style="fill: rgb(224, 224, 224); transform-origin: 153.4px 105.775px;" id="el81ojjvw8127" class="animable"></polygon><g id="elq0h8yn4gon"><rect x="89.46" y="26.77" width="122.17" height="158.72" style="fill: rgb(245, 245, 245); transform-origin: 150.545px 106.13px; transform: rotate(-90deg);" class="animable"></rect></g><path d="M230.51,167.83H70.58V44.44H230.51ZM71.79,166.61H229.3v-121H71.79Z" style="fill: rgb(224, 224, 224); transform-origin: 150.545px 106.135px;" id="elhj0sdp92t3e" class="animable"></path><rect x="88.37" y="57.6" width="124.34" height="93.54" style="fill: rgb(255, 255, 255); transform-origin: 150.54px 104.37px;" id="elztjxmfstjbc" class="animable"></rect><path d="M212.71,57.6l-.6,0-1.75,0-6.77,0-25.5.08-89.72.14.29-.29c0,28.06,0,59.9,0,93.53h0l-.32-.32,124.34.06-.26.26c.06-28.27.11-51.62.14-67.92,0-8.16,0-14.54.07-18.91,0-2.17,0-3.84,0-5s0-1.73,0-1.73,0,.56,0,1.67,0,2.78,0,4.93c0,4.36,0,10.73.07,18.86,0,16.34.08,39.74.13,68.08v.26h-.26l-124.34,0h-.31v-.31h0c0-33.63,0-65.47,0-93.53v-.28h.28l89.9.14,25.44.08,6.72,0,1.71,0Z" style="fill: rgb(224, 224, 224); transform-origin: 150.375px 104.24px;" id="eljubby1x2khm" class="animable"></path><path d="M71.18,44.76a16,16,0,0,1,2.69,1.65c1.61,1.09,3.81,2.62,6.2,4.39s4.49,3.42,6,4.67a15.17,15.17,0,0,1,2.32,2.13,16.37,16.37,0,0,1-2.59-1.78L79.69,51.3l-6.08-4.52A15.55,15.55,0,0,1,71.18,44.76Z" style="fill: rgb(224, 224, 224); transform-origin: 79.785px 51.18px;" id="el4g9m5g682w" class="animable"></path><path d="M229.9,45.05c.11.14-3.66,3.06-8.4,6.53s-8.68,6.16-8.79,6,3.67-3.06,8.41-6.53S229.8,44.91,229.9,45.05Z" style="fill: rgb(224, 224, 224); transform-origin: 221.305px 51.3158px;" id="elezmwzus6uzd" class="animable"></path><line x1="229.9" y1="167.22" x2="212.08" y2="151.14" style="fill: rgb(255, 255, 255); transform-origin: 220.99px 159.18px;" id="elykau4pnhuc" class="animable"></line><path d="M212.08,151.14c.12-.13,4.2,3.37,9.12,7.81s8.82,8.14,8.7,8.27-4.2-3.36-9.12-7.81S212,151.27,212.08,151.14Z" style="fill: rgb(224, 224, 224); transform-origin: 220.991px 159.18px;" id="elv4j6d6dqf" class="animable"></path><path d="M71.18,167.22c-.11-.13,3.6-3.67,8.3-7.91s8.6-7.58,8.72-7.45-3.6,3.67-8.3,7.92S71.3,167.35,71.18,167.22Z" style="fill: rgb(224, 224, 224); transform-origin: 79.6902px 159.54px;" id="el3tyz487k7qm" class="animable"></path><path d="M179.33,74.85c0,.18-12.3.32-27.47.32s-27.47-.14-27.47-.32,12.29-.33,27.47-.33S179.33,74.67,179.33,74.85Z" style="fill: rgb(224, 224, 224); transform-origin: 151.86px 74.845px;" id="el4o74n20g35f" class="animable"></path><path d="M191.71,105.78c0,.18-18.43.32-41.16.32s-41.17-.14-41.17-.32,18.43-.33,41.17-.33S191.71,105.6,191.71,105.78Z" style="fill: rgb(224, 224, 224); transform-origin: 150.545px 105.775px;" id="elq1342gugyio" class="animable"></path><path d="M191.71,113.42c0,.18-18.43.32-41.16.32s-41.17-.14-41.17-.32,18.43-.33,41.17-.33S191.71,113.24,191.71,113.42Z" style="fill: rgb(224, 224, 224); transform-origin: 150.545px 113.415px;" id="el4jctxd4e82u" class="animable"></path><path d="M105.31,90.24a4.92,4.92,0,0,1,5.23-4.95,5.06,5.06,0,0,1,4.09,1.79l-1.72,1.55a2.79,2.79,0,0,0-2.24-1.11,2.72,2.72,0,0,0,0,5.43,2.79,2.79,0,0,0,2.24-1.11l1.72,1.55a5.06,5.06,0,0,1-4.09,1.79A4.91,4.91,0,0,1,105.31,90.24Z" style="fill: rgb(224, 224, 224); transform-origin: 109.97px 90.2353px;" id="elmq2r905va3" class="animable"></path><path d="M123.46,92.91V95h-7.64V85.48h7.46v2.08h-4.79v1.6h4.22v2h-4.22v1.74Z" style="fill: rgb(224, 224, 224); transform-origin: 119.64px 90.24px;" id="elq3mrxji2um" class="animable"></path><path d="M129.11,92.46h-1.47V95H125V85.48h4.35c2.6,0,4.23,1.35,4.23,3.52a3.15,3.15,0,0,1-1.86,3l2.05,3h-2.88Zm0-4.86h-1.5v2.78h1.5c1.11,0,1.67-.51,1.67-1.38S130.25,87.6,129.14,87.6Z" style="fill: rgb(224, 224, 224); transform-origin: 129.385px 90.24px;" id="eld3ekx4h3mib" class="animable"></path><path d="M136.9,87.61H134V85.48h8.52v2.13h-2.91V95H136.9Z" style="fill: rgb(224, 224, 224); transform-origin: 138.26px 90.24px;" id="eli0m8kxowidb" class="animable"></path><path d="M143.5,85.48h2.69V95H143.5Z" style="fill: rgb(224, 224, 224); transform-origin: 144.845px 90.24px;" id="elagz3cpmkwyo" class="animable"></path><path d="M150.8,87.56v2.09H155v2.08h-4.2V95h-2.69V85.48h7.46v2.08Z" style="fill: rgb(224, 224, 224); transform-origin: 151.84px 90.24px;" id="elhodpcxq0ct" class="animable"></path><path d="M156.83,85.48h2.69V95h-2.69Z" style="fill: rgb(224, 224, 224); transform-origin: 158.175px 90.24px;" id="elrcgr0gmacf" class="animable"></path><path d="M161,90.24a4.92,4.92,0,0,1,5.23-4.95,5,5,0,0,1,4.09,1.79l-1.71,1.55a2.81,2.81,0,0,0-2.24-1.11,2.72,2.72,0,0,0,0,5.43,2.81,2.81,0,0,0,2.24-1.11l1.71,1.55a5,5,0,0,1-4.09,1.79A4.91,4.91,0,0,1,161,90.24Z" style="fill: rgb(224, 224, 224); transform-origin: 165.66px 90.2353px;" id="el829s04e6g1a" class="animable"></path><path d="M177.68,93.14h-4L172.91,95h-2.75l4.2-9.51H177L181.22,95h-2.8Zm-.79-2-1.22-3-1.23,3Z" style="fill: rgb(224, 224, 224); transform-origin: 175.69px 90.245px;" id="ell9m27ad5xq9" class="animable"></path><path d="M183.53,87.61h-2.92V85.48h8.52v2.13h-2.91V95h-2.69Z" style="fill: rgb(224, 224, 224); transform-origin: 184.87px 90.24px;" id="el2rh85pvbqhg" class="animable"></path><path d="M197.77,92.91V95h-7.63V85.48h7.46v2.08h-4.8v1.6H197v2H192.8v1.74Z" style="fill: rgb(224, 224, 224); transform-origin: 193.955px 90.24px;" id="elydgnx830ta" class="animable"></path><path d="M161.34,132.41a9.58,9.58,0,1,1-9.58-9.57A9.58,9.58,0,0,1,161.34,132.41Z" style="fill: rgb(224, 224, 224); transform-origin: 151.76px 132.42px;" id="eli0c4z2a6jf" class="animable"></path><path d="M151.76,142a9.61,9.61,0,1,1,9.61-9.61A9.62,9.62,0,0,1,151.76,142Zm0-19.15a9.55,9.55,0,1,0,9.55,9.54A9.56,9.56,0,0,0,151.76,122.87Z" style="fill: rgb(224, 224, 224); transform-origin: 151.76px 132.39px;" id="el9pojs133bml" class="animable"></path><path d="M132.28,132.41c0,.18-5.17.33-11.54.33s-11.54-.15-11.54-.33,5.16-.32,11.54-.32S132.28,132.23,132.28,132.41Z" style="fill: rgb(224, 224, 224); transform-origin: 120.74px 132.415px;" id="elx4taltjowa" class="animable"></path><path d="M195.56,132.41c0,.18-5.78.33-12.91.33s-12.91-.15-12.91-.33,5.78-.32,12.91-.32S195.56,132.23,195.56,132.41Z" style="fill: rgb(224, 224, 224); transform-origin: 182.65px 132.415px;" id="el42vmfpw2w4q" class="animable"></path><path d="M126.31,130.61a3,3,0,0,1-.13-.79,8.55,8.55,0,0,1,1.58-5.67,1.85,1.85,0,0,1,1-.67,1.49,1.49,0,0,1,1.27.27,2.3,2.3,0,0,1,.8,2.5,7.45,7.45,0,0,1-1.41,2.49,12.71,12.71,0,0,1-2.12,2.24,6.42,6.42,0,0,1-3,1.4,4.92,4.92,0,0,1-3.48-.78,3.78,3.78,0,0,1-1.53-3.41,11.16,11.16,0,0,1,1-3.73,4.42,4.42,0,0,1,1.26-1.65,2.74,2.74,0,0,1,2.11-.52,2.05,2.05,0,0,1,1.58,1.57,4.19,4.19,0,0,1-.13,2.17,13,13,0,0,1-1.89,3.65,8.16,8.16,0,0,1-3,2.61,6.19,6.19,0,0,1-3.87.49,4.61,4.61,0,0,1-3.06-2.16,6,6,0,0,1-.81-3.46,9.33,9.33,0,0,1,.84-3.21c.43-.92,1-2,2.13-2.33a1.41,1.41,0,0,1,1.47.68,3.11,3.11,0,0,1,.38,1.42,9.35,9.35,0,0,1-1.14,4.71,9.6,9.6,0,0,1-2.29,2.85,9,9,0,0,1-1.94,1.26,3,3,0,0,1-.75.27,13.24,13.24,0,0,0,2.52-1.72,9.9,9.9,0,0,0,2.14-2.82,9.28,9.28,0,0,0,1-4.52,2.64,2.64,0,0,0-.33-1.19.91.91,0,0,0-1-.44,1.85,1.85,0,0,0-1,.76,5.89,5.89,0,0,0-.71,1.29,6.6,6.6,0,0,0,0,6.14,3.94,3.94,0,0,0,2.67,1.86,5.52,5.52,0,0,0,3.47-.46c2.2-1.06,3.74-3.43,4.59-5.87a3.8,3.8,0,0,0,.12-1.82,1.39,1.39,0,0,0-1.08-1.09,2.13,2.13,0,0,0-1.6.4,3.91,3.91,0,0,0-1.06,1.4,11,11,0,0,0-1,3.49,3.16,3.16,0,0,0,1.26,2.89,4.38,4.38,0,0,0,3.06.7,5.84,5.84,0,0,0,2.78-1.26,11.72,11.72,0,0,0,2-2.12,6.8,6.8,0,0,0,1.36-2.3,1.87,1.87,0,0,0-.6-2,1.21,1.21,0,0,0-1.73.31,8.06,8.06,0,0,0-1.48,3.18A12.56,12.56,0,0,0,126.31,130.61Z" style="fill: rgb(235, 235, 235); transform-origin: 121.056px 127.247px;" id="elrm222xantll" class="animable"></path><path d="M192.54,129.08l-.25.14c-.17.07-.42.2-.77.34a25.49,25.49,0,0,1-3.05,1.05,29,29,0,0,1-5.06.93,30.05,30.05,0,0,1-3.22.12,35,35,0,0,0-3.56-.09,2.48,2.48,0,0,0-1.55.79,1.46,1.46,0,0,0-.19,1.65,8.8,8.8,0,0,0,1.17,1.68c.45.55.92,1.11,1.42,1.66s1,1.11,1.55,1.66a5.13,5.13,0,0,0,1.75,1.34,1.55,1.55,0,0,0,1.82-.64,3.29,3.29,0,0,0,.54-2.19,52.2,52.2,0,0,1,2.41-21.93l.28-.82.33.8a18.24,18.24,0,0,1,0,13.69,18.25,18.25,0,0,1-1.87,3.49,5.59,5.59,0,0,1-3,2.53,1.83,1.83,0,0,1-2-.7,3.63,3.63,0,0,1-.52-1.91,19.17,19.17,0,0,1,.11-3.64,19.9,19.9,0,0,1,2-6.57l.21-.42.27.37a4.41,4.41,0,1,1-6.74-.21,2.43,2.43,0,0,1,1.1-.76,1.19,1.19,0,0,1,1.29.36,1.81,1.81,0,0,1,.31,1.21,3.84,3.84,0,0,1-.24,1.1,14,14,0,0,1-3.55,5.53,12.09,12.09,0,0,1-1.33,1.12,2.41,2.41,0,0,1-.51.32s.15-.14.45-.39.74-.63,1.27-1.17a14.44,14.44,0,0,0,3.35-5.52,2.26,2.26,0,0,0,0-2c-.44-.54-1.32-.17-1.8.44a4.14,4.14,0,0,0-.3,4.87,4,4,0,0,0,5.25,1.09,4,4,0,0,0,1-5.67l.48,0a19.32,19.32,0,0,0-1.91,6.39,18.75,18.75,0,0,0-.09,3.52,3.13,3.13,0,0,0,.41,1.59,1.2,1.2,0,0,0,1.32.45,3.61,3.61,0,0,0,1.47-.87,9.67,9.67,0,0,0,1.16-1.42,17.42,17.42,0,0,0,1.79-3.36,18.11,18.11,0,0,0,1.26-7.69,17.66,17.66,0,0,0-1.24-5.51l.6,0a52.34,52.34,0,0,0-2.43,21.71,3.92,3.92,0,0,1-.68,2.55,2.41,2.41,0,0,1-1.08.83,2.07,2.07,0,0,1-1.37,0,5.61,5.61,0,0,1-1.95-1.5q-.81-.84-1.56-1.68c-.5-.56-1-1.13-1.42-1.7a9,9,0,0,1-1.23-1.79,2,2,0,0,1,.29-2.15,2.87,2.87,0,0,1,1.83-.93,8.55,8.55,0,0,1,1.9,0c.59.05,1.17.09,1.74.11a30.68,30.68,0,0,0,8.2-.89c1.36-.35,2.39-.69,3.08-.94A8.6,8.6,0,0,1,192.54,129.08Z" style="fill: rgb(235, 235, 235); transform-origin: 182.115px 127.903px;" id="elv1lf83e5zb" class="animable"></path></g><g id="freepik--Desk--inject-21" class="animable" style="transform-origin: 250px 464.89px;"><path d="M487.44,464.89c0,.15-106.31.26-237.43.26S12.56,465,12.56,464.89s106.29-.26,237.45-.26S487.44,464.75,487.44,464.89Z" style="fill: rgb(38, 50, 56); transform-origin: 250px 464.89px;" id="elg77c63yf5n4" class="animable"></path></g><g id="freepik--Ribbon--inject-21" class="animable" style="transform-origin: 406.852px 191.166px;"><path d="M362.24,181.69c-1-.63-2.23-1.16-3.29-.66a2.64,2.64,0,0,0-1.24,2.76,7.65,7.65,0,0,0,1.32,2.94,9.77,9.77,0,0,0-6.37-3.15c-.81-.07-1.8.08-2.11.83a2.11,2.11,0,0,0,.24,1.65,24.69,24.69,0,0,0,3.68,5.68,7,7,0,0,0-3.28.23,2.42,2.42,0,0,0-1.61,2.59,3.28,3.28,0,0,0,1,1.49,24.12,24.12,0,0,0,10,5.87,10.14,10.14,0,0,0,6.11.22c1.95-.67,4.2-2,4-4.06l0,.58A18.62,18.62,0,0,0,362.24,181.69Z" style="fill: rgb(239, 158, 186); transform-origin: 360.15px 191.67px;" id="eltv0uot9jiu" class="animable"></path><path d="M370.25,199.74s-.06,0-.15-.11l-.39-.36-.63-.56c-.24-.21-.52-.46-.84-.71-.64-.52-1.42-1.11-2.32-1.72a30.16,30.16,0,0,0-3-1.79,32,32,0,0,0-3.24-1.4,27.44,27.44,0,0,0-2.76-.82c-.39-.11-.76-.18-1.08-.25s-.59-.12-.82-.15l-.52-.1-.18,0h.18l.53.07c.23,0,.51.06.83.12s.69.12,1.09.22a24.66,24.66,0,0,1,2.79.79,29.18,29.18,0,0,1,3.27,1.4,28.58,28.58,0,0,1,3,1.81,26.11,26.11,0,0,1,2.3,1.76c.32.26.59.52.83.74s.45.42.61.58l.37.38Z" style="fill: rgb(38, 50, 56); transform-origin: 362.285px 195.755px;" id="elyej1npi5dbf" class="animable"></path><path d="M363.6,194.85a2.07,2.07,0,0,1-.24-.31c-.15-.2-.35-.49-.59-.86-.49-.74-1.14-1.78-1.81-3s-1.22-2.27-1.6-3.07c-.19-.4-.34-.73-.43-1a1.7,1.7,0,0,1-.14-.36s.09.11.2.33l.49.93c.41.78,1,1.86,1.64,3s1.3,2.21,1.76,3l.54.89A1.41,1.41,0,0,1,363.6,194.85Z" style="fill: rgb(38, 50, 56); transform-origin: 361.195px 190.55px;" id="el8ka58v52ui" class="animable"></path><g id="elquwxnqxu5nd"><g style="opacity: 0.3; transform-origin: 358.84px 193.102px;" class="animable"><path d="M354.47,191.74s5.51-.9,8.74,2.82A26.59,26.59,0,0,0,354.47,191.74Z" id="els8t7hdfwlpi" class="animable" style="transform-origin: 358.84px 193.102px;"></path></g></g><path d="M354.38,226.22A20.69,20.69,0,0,0,366,205.83a20.87,20.87,0,0,0-13,20.88" style="fill: rgb(69, 90, 100); transform-origin: 359.509px 216.27px;" id="elaph66x01ej4" class="animable"></path><path d="M356.17,221.06s.13-.22.34-.62.5-1,.88-1.72c.75-1.44,1.85-3.4,3.21-5.48a62.62,62.62,0,0,1,3.75-5.12l1.22-1.49a3.86,3.86,0,0,0,.44-.56s-.2.16-.52.49-.76.81-1.29,1.43a50.79,50.79,0,0,0-3.83,5.1,49.57,49.57,0,0,0-3.16,5.54c-.35.74-.63,1.34-.8,1.76A3.23,3.23,0,0,0,356.17,221.06Z" style="fill: rgb(38, 50, 56); transform-origin: 361.09px 213.565px;" id="el2ypxb5l0vj6" class="animable"></path><path d="M458.68,183.87a9.44,9.44,0,0,0-3.6-1.34,11.53,11.53,0,0,0,7.94-2.65c.72-.61,1.41-1.55,1-2.42a2.58,2.58,0,0,0-1.62-1.16,30.8,30.8,0,0,0-7.92-1.66,8.07,8.07,0,0,0,2.51-2.89,2.83,2.83,0,0,0-.91-3.46,4,4,0,0,0-2.11-.4,28.58,28.58,0,0,0-13.26,3.39,11.52,11.52,0,0,0-5.22,4.84c-1,2.17-1.73,5.11.2,6.65l-.47-.51a22.86,22.86,0,0,0,21.53,7.07c1.34-.3,2.83-.88,3.26-2.16A3.08,3.08,0,0,0,458.68,183.87Z" style="fill: rgb(239, 158, 186); transform-origin: 449.313px 178.834px;" id="elftcu2rmiqaq" class="animable"></path><path d="M455.43,182.61a4.37,4.37,0,0,1-.81-.11l-2.22-.36c-1.87-.29-4.46-.62-7.33-.84s-5.48-.32-7.37-.39l-2.24-.1a4.2,4.2,0,0,1-.82-.08,4.1,4.1,0,0,1,.82,0c.53,0,1.29,0,2.24,0,1.89,0,4.5.08,7.39.3a70.53,70.53,0,0,1,7.35.94c.93.18,1.68.34,2.2.47A2.81,2.81,0,0,1,455.43,182.61Z" style="fill: rgb(38, 50, 56); transform-origin: 445.035px 181.66px;" id="el15yq857uqug" class="animable"></path><path d="M454.85,174.36a4,4,0,0,1-.69.46c-.46.28-1.14.65-2,1.1a46.17,46.17,0,0,1-7,2.88,45.53,45.53,0,0,1-7.37,1.69c-1,.14-1.75.22-2.29.26a3.68,3.68,0,0,1-.85,0,5.24,5.24,0,0,1,.83-.15c.54-.08,1.31-.2,2.26-.37a52.75,52.75,0,0,0,14.27-4.55c.86-.42,1.55-.76,2-1A3.92,3.92,0,0,1,454.85,174.36Z" style="fill: rgb(38, 50, 56); transform-origin: 444.75px 177.567px;" id="elehfp0s95llo" class="animable"></path><g id="el81su2u10d3l"><g style="opacity: 0.3; transform-origin: 444.64px 178.152px;" class="animable"><path d="M436.34,180.69c6,.61,12.59-.83,16.6-5.21C447.19,178.19,441.54,180.39,436.34,180.69Z" id="elpt8s30fitz" class="animable" style="transform-origin: 444.64px 178.152px;"></path></g></g><path d="M443.19,159.46a3,3,0,0,0-.73-2.74,2.23,2.23,0,0,0-2.56.09,6.57,6.57,0,0,0-1.74,2.1,8.28,8.28,0,0,0,0-6c-.25-.64-.73-1.34-1.42-1.29a1.79,1.79,0,0,0-1.16.8,21,21,0,0,0-2.94,4.93,5.94,5.94,0,0,0-1.4-2.41,2,2,0,0,0-2.58-.25,2.81,2.81,0,0,0-.75,1.32,20.33,20.33,0,0,0-.71,9.79,8.65,8.65,0,0,0,2.11,4.73c1.25,1.23,3.1,2.44,4.59,1.52l-.45.19A15.77,15.77,0,0,0,443.19,159.46Z" style="fill: rgb(239, 158, 186); transform-origin: 435.086px 161.996px;" id="elpycdss5iz3" class="animable"></path><path d="M432.47,172.32a1,1,0,0,1,0-.16l.12-.43c.05-.19.12-.42.19-.68s.15-.57.22-.92a21.38,21.38,0,0,0,.44-2.4,24.64,24.64,0,0,0,.22-3,25.27,25.27,0,0,0-.15-3c-.11-.92-.25-1.73-.4-2.41-.07-.34-.16-.65-.23-.91s-.13-.5-.18-.69-.09-.31-.13-.43l0-.15s0,0,.06.14l.15.42a6.87,6.87,0,0,1,.22.68c.07.27.17.57.24.91a19.7,19.7,0,0,1,.44,2.42,23.45,23.45,0,0,1,.17,3,24.74,24.74,0,0,1-.23,3,23.28,23.28,0,0,1-.48,2.41c-.07.34-.17.64-.25.91s-.15.49-.21.68l-.15.42C432.5,172.27,432.48,172.32,432.47,172.32Z" style="fill: rgb(38, 50, 56); transform-origin: 433.159px 164.73px;" id="el488dc3cim8" class="animable"></path><path d="M433.7,165.43a1.21,1.21,0,0,1,.14-.3c.1-.18.25-.45.44-.77.37-.65.92-1.53,1.56-2.48s1.27-1.78,1.74-2.37c.23-.29.42-.53.56-.68s.22-.25.23-.24l-.18.27-.52.72c-.45.61-1.05,1.44-1.7,2.39s-1.2,1.81-1.6,2.45l-.48.74A1.31,1.31,0,0,1,433.7,165.43Z" style="fill: rgb(38, 50, 56); transform-origin: 436.035px 162.01px;" id="elol9mts4v29i" class="animable"></path><g id="elz41ny6u15u"><g style="opacity: 0.3; transform-origin: 433.463px 161.175px;" class="animable"><path d="M432.64,157.33s2.75,3.85,1.14,7.69A22.67,22.67,0,0,0,432.64,157.33Z" id="elwf3zjd4nv2n" class="animable" style="transform-origin: 433.463px 161.175px;"></path></g></g><path d="M455.5,215.7a24.33,24.33,0,0,1-12.08-24.81,24.56,24.56,0,0,1,13.7,25.49" style="fill: rgb(69, 90, 100); transform-origin: 450.248px 203.635px;" id="elpbxabiga23" class="animable"></path><path d="M453.79,209.51a3.94,3.94,0,0,1-.36-.76l-.9-2.08c-.78-1.75-1.92-4.14-3.36-6.67s-2.91-4.74-4-6.31c-.56-.78-1-1.4-1.33-1.83a4.62,4.62,0,0,1-.47-.7,4.45,4.45,0,0,1,.57.62c.35.4.83,1,1.41,1.78a58.76,58.76,0,0,1,7.41,13c.36.89.64,1.62.81,2.12A4.61,4.61,0,0,1,453.79,209.51Z" style="fill: rgb(38, 50, 56); transform-origin: 448.58px 200.335px;" id="el1pf595j6a4b" class="animable"></path><path d="M373.29,134.62s2.61-7.48,13.84-9.26,16.42,6.36,16.42,6.36,14.47,21.49,13.39,33.36c-15.39-14.41-10.81-21.86-27.12-19.27s-19.67,26.68-19.67,26.68S365.09,156.9,373.29,134.62Z" style="fill: rgb(239, 158, 186); transform-origin: 392.802px 148.798px;" id="elmqvut2ejvrk" class="animable"></path><g id="elw231mai111"><g style="opacity: 0.3; transform-origin: 392.802px 148.798px;" class="animable"><path d="M373.29,134.62s2.61-7.48,13.84-9.26,16.42,6.36,16.42,6.36,14.47,21.49,13.39,33.36c-15.39-14.41-10.81-21.86-27.12-19.27s-19.67,26.68-19.67,26.68S365.09,156.9,373.29,134.62Z" id="eln10szcr4z39" class="animable" style="transform-origin: 392.802px 148.798px;"></path></g></g><path d="M445.53,218.23,433.39,225l.58,17.51S388.14,195,381,187.72c-7.25-7.46-10.2-8.22-12.39-22s4.66-31.09,4.66-31.09-3.56,10.4,1.56,18.47S445.53,218.23,445.53,218.23Z" style="fill: rgb(239, 158, 186); transform-origin: 406.854px 188.57px;" id="elj5mqlz5a5e" class="animable"></path><path d="M445.53,218.23,433.39,225l.58,17.51s-18.9-19-34.26-34.83c4.18-8.54,7.92-16.32,10.06-21.12C427.6,202.62,445.53,218.23,445.53,218.23Z" style="fill: rgb(239, 158, 186); transform-origin: 422.62px 214.535px;" id="elma9yga4vghr" class="animable"></path><path d="M360.31,237.2,374,239.89l4.86,16.83s29.85-58.92,33.4-68.48,6.79-10.92,5-24.79c-2.05-15.64-13-30.79-13-30.79s5.57,11.46,3.2,20.71S360.31,237.2,360.31,237.2Z" style="fill: rgb(239, 158, 186); transform-origin: 389.039px 194.69px;" id="elekway2guyrg" class="animable"></path><path d="M360.31,237.2,374,239.89l4.86,16.83s12.1-23.89,21.81-43.72c-6.61-6.83-12.58-13.07-16.09-17C372.53,216.81,360.31,237.2,360.31,237.2Z" style="fill: rgb(239, 158, 186); transform-origin: 380.49px 226.36px;" id="elont0755ipwc" class="animable"></path><path d="M417.19,163.45s0,.17.08.51.11.86.2,1.5a43.62,43.62,0,0,1,.31,5.83,22.57,22.57,0,0,1-2,9c-.71,1.67-1.56,3.42-2.35,5.31s-1.52,4-2.47,6c-3.72,8.38-8.55,18.21-13.95,29.22S385.52,244,379,256.84l-.29.58-.19-.63c-1.13-3.92-2.33-8.08-3.55-12.29-.44-1.52-.87-3-1.31-4.54l.2.18-13.64-2.69-.36-.07.19-.32c14-23.43,26.14-44.2,34.59-59.2,4.21-7.5,7.51-13.57,9.66-17.8.55-1.06,1-2,1.38-2.83a19.76,19.76,0,0,0,.94-2.1c.23-.56.4-1,.52-1.31s.19-.45.19-.45,0,.16-.15.46-.26.76-.47,1.33a17.89,17.89,0,0,1-.9,2.12c-.39.83-.81,1.8-1.34,2.86C402.4,164.4,399.15,170.5,395,178c-8.37,15.05-20.45,35.85-34.44,59.3l-.17-.39L374,239.63l.16,0,0,.16c.44,1.5.87,3,1.31,4.54,1.22,4.21,2.42,8.36,3.55,12.29l-.48,0c6.49-12.82,12.56-24.94,18-35.92s10.29-20.81,14.05-29.15c.95-2.08,1.69-4.12,2.5-6s1.66-3.64,2.38-5.29a22.49,22.49,0,0,0,2.07-8.92,46.89,46.89,0,0,0-.22-5.82c-.06-.65-.11-1.14-.15-1.5S417.19,163.45,417.19,163.45Z" style="fill: rgb(38, 50, 56); transform-origin: 388.822px 205.395px;" id="elirq5zmn8bz" class="animable"></path><g id="elrqrrx416bi"><g style="opacity: 0.3; transform-origin: 410.015px 202.79px;" class="animable"><polygon points="402.05 210.09 408.81 217.02 417.98 193.81 412.06 188.56 402.05 210.09" id="el19pggvck5uz" class="animable" style="transform-origin: 410.015px 202.79px;"></polygon></g></g><path d="M404.17,132.66s-.15-.24-.46-.7a15.58,15.58,0,0,0-1.52-1.88,15,15,0,0,0-7.6-4.28,18.44,18.44,0,0,0-6.07-.37,23,23,0,0,0-6.78,1.64,15.93,15.93,0,0,0-6.13,4.55,12.28,12.28,0,0,0-2,3.49,26.18,26.18,0,0,0-1,4.08,21.12,21.12,0,0,0,.22,8.25,18.75,18.75,0,0,0,1.32,3.71c.26.59.62,1.12.92,1.68a13.08,13.08,0,0,0,1.11,1.49c3.25,3.74,6.54,6.84,9.22,9.48l6.44,6.2,1.75,1.69a5.05,5.05,0,0,1,.58.61s-.06,0-.17-.12l-.48-.41-1.82-1.62c-1.56-1.42-3.82-3.48-6.56-6.08s-6-5.67-9.33-9.45a13.18,13.18,0,0,1-1.16-1.54c-.31-.56-.68-1.11-1-1.71a18.74,18.74,0,0,1-1.36-3.81,21.2,21.2,0,0,1-.24-8.45,26,26,0,0,1,1-4.17,12.79,12.79,0,0,1,2.12-3.64,16.31,16.31,0,0,1,6.34-4.67,22.83,22.83,0,0,1,6.93-1.63,18.6,18.6,0,0,1,6.2.44,15,15,0,0,1,7.66,4.5,14.52,14.52,0,0,1,1.45,2c.14.24.25.43.31.56S404.18,132.66,404.17,132.66Z" style="fill: rgb(38, 50, 56); transform-origin: 387.954px 148.606px;" id="eltm9y8au8s4o" class="animable"></path></g><g id="freepik--Character--inject-21" class="animable" style="transform-origin: 254.485px 271.5px;"><path d="M332.11,273.61s-16.47,26.69-18.2,30.07-.57,19.68-.57,19.68l-9,12.17,17.1,25.54L337.74,334s8.44-5.61,11-9.91,17-31.91,17-31.91l.17-13.88s1.44-5.35-2.91-6-5.49,3.51-5.49,3.51,5.68-7.45,1.85-10.68-6.19-.31-7.49,1.45-6.68,6.92-6.68,6.92,5.86-8.69,4.91-10.56-2.52-2.65-5.17-1.69-4.73,1.93-6.68,5.35-4.3,7.12-4.3,7.12Z" style="fill: rgb(181, 103, 96); transform-origin: 335.239px 310.954px;" id="el1xzc9f2kirw" class="animable"></path><path d="M334.75,320.46a2.74,2.74,0,0,1,.17-.47c.15-.36.34-.79.57-1.32a17.3,17.3,0,0,0,1.05-5.11c0-.55,0-1.13,0-1.74s-.14-1.22-.21-1.87a19.38,19.38,0,0,0-1.19-4,18.5,18.5,0,0,0-2.27-4,13.85,13.85,0,0,0-3.5-3.41l-.26-.16.2-.23.55-.64a32.37,32.37,0,0,0,4.79-8.62,28.25,28.25,0,0,0,1.39-4.09,14.27,14.27,0,0,0,.31-3.71,10.84,10.84,0,0,0-1.55-5.13c-.69-1.09-1.25-1.56-1.2-1.61a2.93,2.93,0,0,1,.39.34,6.92,6.92,0,0,1,1,1.16,10.46,10.46,0,0,1,1.75,5.22,13.74,13.74,0,0,1-.26,3.82,27,27,0,0,1-1.36,4.17,31.67,31.67,0,0,1-4.84,8.78l-.56.65-.06-.39a14,14,0,0,1,3.64,3.55,18.58,18.58,0,0,1,2.3,4.12,19.74,19.74,0,0,1,1.17,4.08c.07.67.17,1.31.19,1.92s0,1.21,0,1.78a16.18,16.18,0,0,1-1.22,5.17c-.27.51-.48.94-.66,1.28S334.77,320.47,334.75,320.46Z" style="fill: rgb(138, 74, 67); transform-origin: 333.039px 297.405px;" id="elqsek68lxsas" class="animable"></path><path d="M306.48,326.38l-30.37,44.17-19.85-53.63L226,405s29.39,29.57,49.25,34.72,25.09-5.1,29.22-16.68c2.48-7,38.41-69.86,38.41-69.86Z" style="fill: rgb(224, 224, 224); transform-origin: 284.44px 379.003px;" id="elj9xrztqdim" class="animable"></path><path d="M277.18,368.9a1.91,1.91,0,0,1-.15.46c-.15.35-.33.77-.54,1.28s-.54,1.23-.84,2-.69,1.69-1,2.72c-.75,2-1.51,4.47-2.23,7.22a87,87,0,0,0-1.74,9.09,83.73,83.73,0,0,0-.63,9.23c0,2.85.1,5.41.3,7.56.07,1.07.22,2,.31,2.89s.2,1.58.29,2.17.14,1,.2,1.38a1.53,1.53,0,0,1,0,.49A1.78,1.78,0,0,1,271,415c-.08-.37-.18-.82-.29-1.36s-.27-1.32-.38-2.17-.29-1.82-.39-2.9a69,69,0,0,1-.41-7.59,71,71,0,0,1,2.39-18.43,66.8,66.8,0,0,1,2.34-7.24c.36-1,.77-1.91,1.1-2.7s.65-1.46.93-2l.62-1.25A1.84,1.84,0,0,1,277.18,368.9Z" style="fill: rgb(38, 50, 56); transform-origin: 273.355px 392.145px;" id="elt4n5tq8nh3n" class="animable"></path><polygon points="336.1 299.11 323.81 300.54 321.86 303.01 322.86 310.71 325.44 312.69 337.27 310.53 336.1 299.11" style="fill: rgb(38, 50, 56); transform-origin: 329.565px 305.9px;" id="eluslusz8zzuf" class="animable"></polygon><path d="M323.93,300.45a35.69,35.69,0,0,0,.59,5.93,35.15,35.15,0,0,0,1.08,5.86,74.72,74.72,0,0,0-1.67-11.79Z" style="fill: rgb(69, 90, 100); transform-origin: 324.765px 306.345px;" id="el8r0nwlrtxcg" class="animable"></path><path d="M327.48,312.29a76.76,76.76,0,0,0-1.89-11.9,37.24,37.24,0,0,0,.71,6A37.86,37.86,0,0,0,327.48,312.29Z" style="fill: rgb(69, 90, 100); transform-origin: 326.535px 306.34px;" id="elpte1kx04v1r" class="animable"></path><path d="M348,318.41c0,.7-7.87,11.94-7.87,11.94h-7.19l-2.77-2-1.22-7,8.59-11.15Z" style="fill: rgb(38, 50, 56); transform-origin: 338.475px 320.275px;" id="elsku0bs5rfu" class="animable"></path><path d="M328.9,321.36a10.86,10.86,0,0,0,1.7,1.28c1.06.76,2.5,1.84,4,3.1,3.09,2.52,5.42,4.76,5.52,4.66a8.79,8.79,0,0,0-1.41-1.59,48.69,48.69,0,0,0-3.8-3.44,42.23,42.23,0,0,0-4.16-3A7.88,7.88,0,0,0,328.9,321.36Z" style="fill: rgb(69, 90, 100); transform-origin: 334.51px 325.882px;" id="eldvp0n3rhoib" class="animable"></path><path d="M329.74,320.28a71.2,71.2,0,0,1,5.93,4,55.89,55.89,0,0,1,5.12,5,7.51,7.51,0,0,0-1.18-1.76,24.79,24.79,0,0,0-3.64-3.61,25.82,25.82,0,0,0-4.28-2.82A7.08,7.08,0,0,0,329.74,320.28Z" style="fill: rgb(69, 90, 100); transform-origin: 335.265px 324.78px;" id="eleid1b9mq9pu" class="animable"></path><rect x="348.69" y="317.37" width="13.21" height="18.01" style="fill: rgb(38, 50, 56); transform-origin: 355.295px 326.375px;" id="elu35f18xcenl" class="animable"></rect><path d="M348.52,333.35a90.32,90.32,0,0,0,13.16,0,90.32,90.32,0,0,0-13.16,0Z" style="fill: rgb(69, 90, 100); transform-origin: 355.1px 333.35px;" id="elg3upxs42bu" class="animable"></path><path d="M348.43,331.73a90.32,90.32,0,0,0,13.16,0,90.32,90.32,0,0,0-13.16,0Z" style="fill: rgb(69, 90, 100); transform-origin: 355.01px 331.73px;" id="elav90hg8usv" class="animable"></path><path d="M368.43,312.31a18.14,18.14,0,0,1-33-13.11l7,4.55Z" style="fill: rgb(235, 235, 235); transform-origin: 351.797px 309.819px;" id="el2282j8b0h9g" class="animable"></path><path d="M401.91,385.36H384.15V368H346.77a4.41,4.41,0,0,1-4.41-4.41h0a4.41,4.41,0,0,1,4.41-4.42h21.8v-6H329.25a4.28,4.28,0,0,1-4.28-4.28h0a4.28,4.28,0,0,1,4.28-4.28h65v6.75h7.26Z" style="fill: rgb(38, 50, 56); transform-origin: 363.44px 364.985px;" id="eltbgh3vmfic" class="animable"></path><path d="M394.27,344.61c0,13.66,0,27.08,0,40.75" style="fill: rgb(38, 50, 56); transform-origin: 394.27px 364.985px;" id="elluenkfxysu" class="animable"></path><path d="M394.31,385.36c.14,0,.24-9.13.22-20.38s-.13-20.37-.26-20.37-.23,9.12-.22,20.37S394.18,385.36,394.31,385.36Z" style="fill: rgb(69, 90, 100); transform-origin: 394.291px 364.985px;" id="el06wtcztp1vf5" class="animable"></path><path d="M384.2,345.21c-.13,0-.24,5.14-.24,11.49s.11,11.49.24,11.49.24-5.14.24-11.49S384.34,345.21,384.2,345.21Z" style="fill: rgb(69, 90, 100); transform-origin: 384.2px 356.7px;" id="elcb939wvlip4" class="animable"></path><path d="M325,419.9a22.25,22.25,0,0,1,18-15.58h59.11l1.3,16.61Z" style="fill: rgb(235, 235, 235); transform-origin: 364.205px 412.625px;" id="eljqruj19nhba" class="animable"></path><path d="M433.16,380.7V313.62a4.66,4.66,0,0,0-3.61-4.54L374,293.27l-.54-22-33.21-.55L330,261.29,313.74,279.8h0l21.52,23.46,66,20.45,1.09,96.19H325.13a3.4,3.4,0,0,0-3.4,3.4v12.57H433.16Z" style="fill: rgb(69, 90, 100); transform-origin: 373.45px 348.58px;" id="ell712swlmyxe" class="animable"></path><rect x="331.7" y="338.76" width="35.86" height="5.85" rx="2.82" style="fill: rgb(224, 224, 224); transform-origin: 349.63px 341.685px;" id="elyr293kvdixn" class="animable"></rect><path d="M334.53,344.61s-.28,0-.78-.16A2.84,2.84,0,0,1,332.1,343a3,3,0,0,1-.28-1.56,2.68,2.68,0,0,1,.72-1.7,2.71,2.71,0,0,1,1.9-.86H337l27.77.07a2.6,2.6,0,0,1,2.56,2.21A2.94,2.94,0,0,1,367,343a2.62,2.62,0,0,1-1.27,1.19,4.3,4.3,0,0,1-1.78.22h-5.47l-12.49.05-8.42.07-2.29.05a4.83,4.83,0,0,0-.79.05,4.83,4.83,0,0,0,.79.05l2.29,0,8.42.08,12.49.05H364a4.54,4.54,0,0,0,2-.25,3,3,0,0,0,1.5-1.4,3.38,3.38,0,0,0,.31-2.05,3.07,3.07,0,0,0-3-2.62l-27.77.07-2.54,0a3,3,0,0,0-2.09,1,3,3,0,0,0-.75,1.87,3.1,3.1,0,0,0,.35,1.65,2.84,2.84,0,0,0,1.79,1.42A2,2,0,0,0,334.53,344.61Z" style="fill: rgb(38, 50, 56); transform-origin: 349.754px 341.661px;" id="eljzcyanjm2s" class="animable"></path><g id="elfbjy8mi7qwc"><circle cx="417.73" cy="380.13" r="17.22" style="fill: rgb(38, 50, 56); transform-origin: 417.73px 380.13px; transform: rotate(-45deg);" class="animable"></circle></g><path d="M408.16,380.69a19.5,19.5,0,0,1,.39-2.31,9.56,9.56,0,0,1,3.49-5.16,9.4,9.4,0,0,1,8.87-1.31,8.75,8.75,0,0,1,2.36,1.28,9,9,0,0,1,2,2,9.31,9.31,0,0,1,0,11,8.86,8.86,0,0,1-2,2,8.71,8.71,0,0,1-2.36,1.27,9.36,9.36,0,0,1-8.87-1.3,9.63,9.63,0,0,1-3.49-5.16,19.88,19.88,0,0,1-.39-2.31,7.4,7.4,0,0,0,.21,2.36,9.52,9.52,0,0,0,3.46,5.38,9.7,9.7,0,0,0,9.23,1.45,9.27,9.27,0,0,0,2.48-1.32,9.54,9.54,0,0,0,2.08-2.08,9.75,9.75,0,0,0,0-11.59,9.28,9.28,0,0,0-2.08-2.07,9,9,0,0,0-2.48-1.32,9.72,9.72,0,0,0-5.14-.4,9.65,9.65,0,0,0-7.55,7.23A7.4,7.4,0,0,0,408.16,380.69Z" style="fill: rgb(69, 90, 100); transform-origin: 417.835px 380.69px;" id="elj2qp3x1pi6a" class="animable"></path><polygon points="335.21 263.78 315.47 285.25 308.57 278.19 328.17 257.29 335.21 263.78" style="fill: rgb(38, 50, 56); transform-origin: 321.89px 271.27px;" id="el7s28y3i4apf" class="animable"></polygon><path d="M305.14,244.71l9,8.6a1.54,1.54,0,0,1,.06,2.17l-7.67,8.13a1.54,1.54,0,0,1-2.2,0l-9.12-9a1.54,1.54,0,0,1,0-2.19l7.78-7.72A1.54,1.54,0,0,1,305.14,244.71Z" style="fill: rgb(38, 50, 56); transform-origin: 304.685px 254.17px;" id="elgq4rb3pdceg" class="animable"></path><path d="M313.42,255.13c.22.33,10.09,9.91,10.09,9.91l-7.83,8-9.93-9.87Z" style="fill: rgb(38, 50, 56); transform-origin: 314.63px 264.085px;" id="elytck74nuj2" class="animable"></path><g id="el4qxve7hkbw"><rect x="311.77" y="435.87" width="133.27" height="5.09" style="fill: rgb(38, 50, 56); transform-origin: 378.405px 438.415px; transform: rotate(180deg);" class="animable"></rect></g><g id="el5f4vtna2eog"><rect x="343" y="390.25" width="30.45" height="14.07" style="fill: rgb(69, 90, 100); transform-origin: 358.225px 397.285px; transform: rotate(180deg);" class="animable"></rect></g><path d="M370.15,404.32a100.61,100.61,0,0,0,0-13.89,100.61,100.61,0,0,0,0,13.89Z" style="fill: rgb(38, 50, 56); transform-origin: 370.15px 397.375px;" id="el6g9mqu2ax54" class="animable"></path><path d="M365.06,404.32a100.61,100.61,0,0,0,0-13.89,100.61,100.61,0,0,0,0,13.89Z" style="fill: rgb(38, 50, 56); transform-origin: 365.06px 397.375px;" id="el27z33rtr2e7" class="animable"></path><path d="M360,404.32a96.59,96.59,0,0,0,0-13.89,100.61,100.61,0,0,0,0,13.89Z" style="fill: rgb(38, 50, 56); transform-origin: 360.005px 397.375px;" id="eldqniwgs6fxi" class="animable"></path><path d="M354.87,404.32a100.61,100.61,0,0,0,0-13.89,100.61,100.61,0,0,0,0,13.89Z" style="fill: rgb(38, 50, 56); transform-origin: 354.87px 397.375px;" id="elfq7pnhwl1v5" class="animable"></path><path d="M349.78,404.32a100.61,100.61,0,0,0,0-13.89,100.61,100.61,0,0,0,0,13.89Z" style="fill: rgb(38, 50, 56); transform-origin: 349.78px 397.375px;" id="elio3jqf4p5uc" class="animable"></path><path d="M344.68,404.32a100.61,100.61,0,0,0,0-13.89,100.61,100.61,0,0,0,0,13.89Z" style="fill: rgb(38, 50, 56); transform-origin: 344.68px 397.375px;" id="elmwjopynev9" class="animable"></path><rect x="297.62" y="440.96" width="152.24" height="23.94" style="fill: rgb(38, 50, 56); transform-origin: 373.74px 452.93px;" id="elj7ipclrb4gl" class="animable"></rect><path d="M298.76,452.89c0-.14,33.58-.26,75-.26s75,.12,75,.26-33.58.26-75,.26S298.76,453,298.76,452.89Z" style="fill: rgb(69, 90, 100); transform-origin: 373.76px 452.89px;" id="elbymhk085rep" class="animable"></path><path d="M187.46,251.74l-11.32,8.16s-42.53,8-55.43,15.41c-35.2,20.15-32.26,141.41-32.26,141.41L59.11,464.89H205.49l13.9-36.61L245,378.51l-7.35-4.67,18.65-56.92-12.82-13.25-4.82-19.73-43-34.85Z" style="fill: rgb(224, 224, 224); transform-origin: 157.705px 356.99px;" id="elmlh7s5jgvpc" class="animable"></path><polygon points="239.34 287.79 194.47 253.01 194.9 250.65 192.36 255.99 216.91 384.49 239.34 287.79" style="fill: rgb(255, 255, 255); transform-origin: 215.85px 317.57px;" id="el381skr825q8" class="animable"></polygon><path d="M190.44,461.19s.05-.19.18-.56l.59-1.61c.54-1.44,1.31-3.53,2.31-6.21l3.68-9.8c.72-1.91,1.49-4,2.31-6.12.4-1.08.82-2.2,1.25-3.34s.83-2.34,1.27-3.55c1.72-4.84,3.61-10.14,5.64-15.83q1.52-4.28,3.14-8.82c1.07-3,2.26-6.13,3.22-9.38a21.74,21.74,0,0,0,1-5,11,11,0,0,0-.92-5c-.66-1.63-1.5-3.23-2.27-4.88l-2.33-5c-3.11-6.71-5.93-13.85-8.64-21.21-4.48-12.2-8.41-24.05-12.68-34.81l-.06-.16.11-.11c3.49-3.4,6.67-6.88,9.68-10.26l.1.37a32,32,0,0,0-12.91-1.41l-.19,0,0-.19c-3.21-14.53-5.61-26.61-7-35.08-.72-4.24-1.19-7.57-1.44-9.85s-.3-3.5-.3-3.5.05.3.12.89.15,1.46.3,2.59c.3,2.27.81,5.6,1.56,9.82,1.5,8.46,4,20.52,7.21,35l-.22-.16a32.13,32.13,0,0,1,13.09,1.4l.34.11-.24.26c-3,3.39-6.18,6.88-9.68,10.3l.06-.26c4.29,10.77,8.23,22.63,12.71,34.82,2.71,7.35,5.52,14.47,8.62,21.18.78,1.67,1.56,3.33,2.32,5s1.6,3.23,2.28,4.9a11.63,11.63,0,0,1,.94,5.25,22.43,22.43,0,0,1-1.06,5.1c-1,3.26-2.18,6.36-3.25,9.39l-3.17,8.81c-2,5.69-4,11-5.7,15.82-.44,1.21-.87,2.39-1.28,3.54s-.86,2.25-1.28,3.33l-2.34,6.11c-1.47,3.8-2.73,7.08-3.76,9.77s-1.85,4.74-2.4,6.17l-.64,1.6C190.53,461,190.44,461.19,190.44,461.19Z" style="fill: rgb(38, 50, 56); transform-origin: 195.894px 360.535px;" id="elexzimbu600k" class="animable"></path><path d="M251.24,328.66s0,.08,0,.24l-.18.67c-.18.63-.42,1.49-.74,2.59-.66,2.28-1.62,5.53-2.8,9.57-2.44,8.14-5.81,19.43-9.62,32.18l-.11-.29,6,3.81,1.18.75.2.13-.11.21c-6.69,13.05-12.71,24.82-17.08,33.35l-5.2,10-1.44,2.71-.38.7c-.09.16-.14.24-.15.23a1.23,1.23,0,0,1,.1-.25l.34-.72,1.35-2.76c1.21-2.42,2.94-5.86,5.06-10.11l16.94-33.43.09.34c-.37-.24-.77-.5-1.18-.75l-6-3.82-.17-.1.06-.19c3.88-12.73,7.31-24,9.78-32.13,1.25-4,2.25-7.25,3-9.52l.82-2.57.22-.66A2.19,2.19,0,0,1,251.24,328.66Z" style="fill: rgb(38, 50, 56); transform-origin: 236.025px 377.085px;" id="elau6ol17v59" class="animable"></path><path d="M243.44,303.67s0,.07.05.22.08.39.12.66c.1.62.24,1.47.41,2.55l1.42,9.5,0,.18h-.19l-6.49.61.15-.33L244.1,324l.08.11-.05.12c-2.26,5.62-4.81,11.94-7.48,18.59-5,12.33-9.55,23.5-12.86,31.62-1.65,4-3,7.27-3.95,9.57-.46,1.09-.83,2-1.09,2.59l-.3.66a1.09,1.09,0,0,1-.12.23.9.9,0,0,1,.07-.24l.25-.69c.25-.64.58-1.52,1-2.63l3.8-9.62c3.27-8.14,7.75-19.33,12.71-31.68,2.69-6.65,5.25-13,7.53-18.58l0,.23-5.13-6.94-.21-.3.36,0,6.5-.54-.16.19-1.26-9.51c-.13-1.09-.24-1.94-.32-2.57,0-.27,0-.49-.06-.67S243.43,303.67,243.44,303.67Z" style="fill: rgb(38, 50, 56); transform-origin: 231.885px 345.58px;" id="elpzetucazir" class="animable"></path><path d="M225.21,315.85a4.05,4.05,0,0,1-.62-.58c-.38-.4-.93-1-1.59-1.76a63.63,63.63,0,0,1-5.09-6.78l.4-.05a50.07,50.07,0,0,1-4.92,10.41c-.81,1.29-1.66,2.52-2.53,3.67l-.23.31-.19-.34-6.55-11.63L202,305.64a7.18,7.18,0,0,1-.63-1.28,10.42,10.42,0,0,1,.78,1.2c.52.85,1.19,2,2,3.37l6.71,11.55-.42,0c.85-1.14,1.69-2.36,2.49-3.65a51.85,51.85,0,0,0,4.94-10.28l.15-.43.25.39a74,74,0,0,0,4.91,6.85l1.49,1.84A4.76,4.76,0,0,1,225.21,315.85Z" style="fill: rgb(38, 50, 56); transform-origin: 213.29px 312.715px;" id="elrbr0f386kw" class="animable"></path><path d="M215.28,382a2.92,2.92,0,0,1,0-.68c.06-.5.12-1.15.21-2,.19-1.7.49-4.15.88-7.18.77-6.06,1.93-14.42,3.36-23.63S222.61,331,223.7,325c.55-3,1-5.44,1.34-7.11l.39-1.93a5.8,5.8,0,0,1,.17-.67,2.74,2.74,0,0,1-.07.69c-.07.49-.17,1.14-.3,1.94-.28,1.75-.68,4.17-1.17,7.14-1,6-2.37,14.35-3.79,23.56s-2.64,17.55-3.51,23.6c-.44,3-.79,5.41-1,7.15-.13.81-.23,1.45-.3,1.95A5.55,5.55,0,0,1,215.28,382Z" style="fill: rgb(38, 50, 56); transform-origin: 220.431px 348.645px;" id="elo6u9aspuvrb" class="animable"></path><g id="el95bht8tqyl7"><g style="opacity: 0.3; transform-origin: 195.925px 336.5px;" class="animable"><path d="M176.28,266.9l.31,2.17L182.9,313l10.28-1.1-7.73,5.9,26.93,73.82-1.59,14.48s5.7-15.23,4.65-17.46c-2.56-5.47-27-68.66-27-68.66l9.68-10.28-13-1.41Z" id="elxgc2t8ih05c" class="animable" style="transform-origin: 195.925px 336.5px;"></path></g></g><g id="eluodr76jdn87"><g style="opacity: 0.3; transform-origin: 239.485px 373.62px;" class="animable"><polygon points="241.93 367.34 249.53 335.98 237.44 373.78 244.96 378.51 229.44 408.18 232.53 411.26 247.51 378.22 241.93 367.34" id="elm90ut8c3h6" class="animable" style="transform-origin: 239.485px 373.62px;"></polygon></g></g><path d="M239.19,374.52l7.13-14a2.26,2.26,0,0,1,3.3-.83h0a2.25,2.25,0,0,1,.71,2.86L243,377Z" style="fill: rgb(239, 158, 186); transform-origin: 244.882px 368.144px;" id="elameg6g4zdk9" class="animable"></path><path d="M183,368.42s.85-1.89,3.81-2.1a4.29,4.29,0,0,1,4.13,2s3.28,5.91,2.73,9c-3.68-4.1-2.32-5.93-6.62-5.63s-5.72,6.5-5.72,6.5S180.33,374,183,368.42Z" style="fill: rgb(239, 158, 186); transform-origin: 187.439px 372.241px;" id="eltxx689fgds" class="animable"></path><g id="elpkjh0ibd89"><g style="opacity: 0.3; transform-origin: 187.439px 372.241px;" class="animable"><path d="M183,368.42s.85-1.89,3.81-2.1a4.29,4.29,0,0,1,4.13,2s3.28,5.91,2.73,9c-3.68-4.1-2.32-5.93-6.62-5.63s-5.72,6.5-5.72,6.5S180.33,374,183,368.42Z" id="elur5qpo1ozdo" class="animable" style="transform-origin: 187.439px 372.241px;"></path></g></g><path d="M199.87,391.8l-3.31,1.49-.25,4.57s-10.85-13.39-12.53-15.45-2.47-2.37-2.73-6,1.91-8,1.91-8a6.24,6.24,0,0,0,0,4.84C184.1,375.47,199.87,391.8,199.87,391.8Z" style="fill: rgb(239, 158, 186); transform-origin: 190.449px 383.135px;" id="elafl9ua267s9" class="animable"></path><path d="M199.87,391.8l-3.31,1.49-.25,4.57s-4.48-5.37-8.12-9.84c1.28-2.12,2.43-4.06,3.09-5.26C195.56,387.33,199.87,391.8,199.87,391.8Z" style="fill: rgb(239, 158, 186); transform-origin: 194.03px 390.31px;" id="elukuveuo3fz" class="animable"></path><path d="M177.27,394.81l3.49,1,.89,4.49s9.09-14.66,10.23-17.06,2-2.69,1.85-6.34a20.72,20.72,0,0,0-2.69-8.3s1.19,3.1.36,5.46S177.27,394.81,177.27,394.81Z" style="fill: rgb(239, 158, 186); transform-origin: 185.509px 384.45px;" id="elzueu48jd98e" class="animable"></path><path d="M177.27,394.81l3.49,1,.89,4.49s3.68-5.94,6.65-10.88c-1.56-1.93-3-3.69-3.8-4.78C180.91,389.78,177.27,394.81,177.27,394.81Z" style="fill: rgb(239, 158, 186); transform-origin: 182.785px 392.47px;" id="elu38363unm8l" class="animable"></path><path d="M193.73,376.91a1.84,1.84,0,0,1,.06.53,9.78,9.78,0,0,1,0,1.53,5.83,5.83,0,0,1-.71,2.34c-.22.42-.46.87-.72,1.34s-.47,1-.76,1.52c-2.32,4.2-5.79,9.88-9.72,16.27l-.35.57-.13-.65c-.21-1.05-.42-2.16-.65-3.28-.08-.4-.16-.81-.23-1.21l.18.2-3.49-1-.35-.1.21-.3c4.18-5.77,7.82-10.89,10.39-14.58,1.28-1.85,2.29-3.34,3-4.38.32-.52.59-.92.74-1.21a2.16,2.16,0,0,1,.25-.42,1.63,1.63,0,0,1-.17.46,13.6,13.6,0,0,1-.66,1.27c-.63,1.07-1.6,2.6-2.84,4.47-2.49,3.75-6.09,8.9-10.25,14.69l-.14-.39,3.49,1,.15,0,0,.16c.07.4.15.8.23,1.21.23,1.12.44,2.23.65,3.28l-.47-.09c3.94-6.38,7.46-12,9.85-16.17.3-.51.54-1,.8-1.5l.75-1.32a5.84,5.84,0,0,0,.76-2.23C193.75,377.65,193.68,376.91,193.73,376.91Z" style="fill: rgb(38, 50, 56); transform-origin: 185.34px 387.545px;" id="eld6pqeagyobn" class="animable"></path><g id="elaim4zfyu9h"><g style="opacity: 0.3; transform-origin: 190.995px 386.995px;" class="animable"><polygon points="188.74 388.7 190.34 390.66 193.25 384.82 191.83 383.33 188.74 388.7" id="elpb1zn6ys3i" class="animable" style="transform-origin: 190.995px 386.995px;"></polygon></g></g><path d="M191,368.61s-.17-.26-.52-.67a4,4,0,0,0-1.86-1.21,5.69,5.69,0,0,0-3.28.09,4,4,0,0,0-1.61,1,3.21,3.21,0,0,0-.57.81,5.71,5.71,0,0,0-.34,1,4.77,4.77,0,0,0,.54,3.87c.74,1,1.52,1.93,2.14,2.68a20.41,20.41,0,0,1,2,2.5,16.72,16.72,0,0,1-2.26-2.25,33.08,33.08,0,0,1-2.26-2.66,5.15,5.15,0,0,1-.66-4.27,7.79,7.79,0,0,1,.38-1.09,3.46,3.46,0,0,1,.67-.95,4.45,4.45,0,0,1,1.83-1.11,5.81,5.81,0,0,1,3.54,0,3.82,3.82,0,0,1,1.91,1.42C191,368.28,191.07,368.6,191,368.61Z" style="fill: rgb(38, 50, 56); transform-origin: 186.572px 372.377px;" id="elt6pa30vtit" class="animable"></path><path d="M59.11,464.89s.16-.3.5-.88l1.52-2.54c1.35-2.24,3.31-5.51,5.84-9.7,5.08-8.39,12.38-20.44,21.3-35.15l0,.11c-.2-11.86.06-25.33.92-39.89a389,389,0,0,1,5.31-46.3c1.15-6.28,2.52-12.42,4.18-18.35a119.4,119.4,0,0,1,6-17,55.11,55.11,0,0,1,9.14-14.51,29,29,0,0,1,6.31-5.26,17.9,17.9,0,0,1,1.78-.95c.6-.29,1.18-.63,1.79-.87,1.22-.5,2.41-1,3.63-1.48,4.84-1.82,9.61-3.2,14.17-4.45s8.92-2.33,13-3.3c8.24-1.92,15.51-3.42,21.56-4.57l-.05,0,11.35-8.12h0l6.14-2,1.52-.47.52-.14-.5.18-1.52.52-6.11,2h0L176.22,260h-.05c-6,1.19-13.31,2.72-21.53,4.67-4.11,1-8.47,2.06-13,3.33s-9.3,2.65-14.12,4.47c-1.21.44-2.39,1-3.6,1.48-.61.24-1.18.58-1.77.86a19.63,19.63,0,0,0-1.75.94,28.47,28.47,0,0,0-6.2,5.19,55.07,55.07,0,0,0-9,14.39,119.17,119.17,0,0,0-6,17c-1.65,5.92-3,12-4.17,18.3a394.34,394.34,0,0,0-5.33,46.24c-.88,14.54-1.17,28-1,39.85v.06l0,.05c-9,14.67-16.33,26.7-21.45,35.07l-5.94,9.63-1.56,2.52C59.31,464.61,59.11,464.89,59.11,464.89Z" style="fill: rgb(38, 50, 56); transform-origin: 127.325px 356.98px;" id="elxoe8b2hxsb" class="animable"></path><g id="elc41envz78ye"><g style="opacity: 0.3; transform-origin: 154.98px 404.095px;" class="animable"><path d="M99.57,344.93s5.11,92.2,15.24,102.1c7,6.88,19.22,7.07,36.34,11.1,18.49,4.35,59.24,5.13,59.24,5.13s-87.38-36.62-87-38.91S99.57,344.93,99.57,344.93Z" id="elnkswxzby8ip" class="animable" style="transform-origin: 154.98px 404.095px;"></path></g></g><path d="M164.37,310.88c-.61,2.74,5.28,91.34,5.28,91.34s15.78,3.9,26.77,6.15c14.45,2.95,59.82,9.84,59.82,9.84L252,467.67s-33.58-2.93-67.1-7.49c-32.37-4.41-60.87-7-67.41-12.84-13.82-12.35-15.67-92.9-18.3-106.74-2.6-13.66-1.16-65.74,33.66-65S164.37,310.88,164.37,310.88Z" style="fill: rgb(224, 224, 224); transform-origin: 177.293px 371.631px;" id="el2fg0lguccvy" class="animable"></path><path d="M118.82,277.25s-.4.27-1.19.75l-.66.42-.77.56-.89.66-1,.83a37.76,37.76,0,0,0-9.21,12.74,77.75,77.75,0,0,0-6.37,24.14A87.79,87.79,0,0,0,98.29,333c.14,2.76.84,5.55,1.1,8.48s.58,5.91.84,9c1,12.28,2,25.74,3.53,40.15.78,7.2,1.67,14.64,2.87,22.26a158,158,0,0,0,5.12,23.2,50,50,0,0,0,2.22,5.69,18.54,18.54,0,0,0,3.34,5.12,6.79,6.79,0,0,0,2.53,1.64l1.46.55,1.5.47c2,.61,4.06,1.12,6.14,1.59,8.31,1.86,16.91,3.27,25.67,4.62,17.52,2.66,35.74,4.93,54.42,7.1,14.61,1.67,29,3.25,42.94,4.57l-.27.23c1.49-17.11,2.92-33.65,4.3-49.45l.2.25c-16.29-2.58-31.79-5.1-46.32-7.61-7.26-1.26-14.29-2.47-21-3.92L169.6,402.4l-.14,0v-.14c-1.83-28.15-3.23-51-4.11-66.78-.43-7.9-.75-14-.9-18.21-.1-2.08-.11-3.67-.13-4.74s.06-1.62.06-1.62,0,.14,0,.41v1.21c0,1.07.08,2.66.19,4.74.19,4.16.54,10.3,1,18.2.94,15.79,2.4,38.62,4.28,66.77l-.15-.18L189,406.5c6.7,1.44,13.74,2.64,21,3.9,14.53,2.48,30,5,46.32,7.57l.23,0,0,.23c-1.37,15.8-2.79,32.34-4.27,49.46l0,.25-.25,0c-14-1.32-28.35-2.9-43-4.57-18.68-2.17-36.9-4.44-54.44-7.11-8.76-1.36-17.36-2.77-25.7-4.64-2.08-.48-4.15-1-6.17-1.6l-1.52-.48-1.49-.57a7.1,7.1,0,0,1-2.68-1.74,19.1,19.1,0,0,1-3.43-5.25,50,50,0,0,1-2.24-5.76,158.68,158.68,0,0,1-5.12-23.27c-1.19-7.63-2.07-15.08-2.84-22.28-1.51-14.42-2.47-27.89-3.47-40.17-.25-3.07-.51-6.07-.82-9s-1-5.7-1.08-8.5a88.19,88.19,0,0,1,.49-15.68,78,78,0,0,1,6.48-24.19,37.35,37.35,0,0,1,9.33-12.74l1-.82c.32-.24.63-.45.91-.65l.77-.56.67-.4C118.4,277.48,118.82,277.25,118.82,277.25Z" style="fill: rgb(38, 50, 56); transform-origin: 177.216px 372.58px;" id="el5vj2bmrd1wy" class="animable"></path><path d="M119.94,276.36a3.26,3.26,0,0,1,.55-.18c.37-.1.91-.28,1.62-.42a32.26,32.26,0,0,1,6.1-.75A34.9,34.9,0,0,1,161,295.07a32.69,32.69,0,0,1,2.11,5.77c.2.7.28,1.26.36,1.63a3.76,3.76,0,0,1,.09.58c-.05,0-.23-.77-.65-2.16a36.39,36.39,0,0,0-7.19-13.18,34.38,34.38,0,0,0-18.52-11.34,36.78,36.78,0,0,0-15-.41C120.73,276.22,120,276.41,119.94,276.36Z" style="fill: rgb(38, 50, 56); transform-origin: 141.75px 289.02px;" id="ell7rby0crkup" class="animable"></path><path d="M168.92,402.55a31.58,31.58,0,0,1-3.11,2.09c-1.93,1.25-4.59,3-7.45,5.06s-5.39,4-7.2,5.42a31,31,0,0,1-3,2.27,4.2,4.2,0,0,1,.7-.73c.47-.44,1.17-1.07,2.05-1.82,1.76-1.5,4.26-3.5,7.13-5.56s5.57-3.77,7.56-4.95c1-.59,1.81-1.05,2.38-1.35A3.57,3.57,0,0,1,168.92,402.55Z" style="fill: rgb(38, 50, 56); transform-origin: 158.54px 409.97px;" id="elzw9rssz5gl" class="animable"></path><path d="M256.12,422.39s14.94,1.49,20.07-.22,6.37-3.67,12.24-3.92,32.05,0,32.05,0,22.26-.86,24,2.51a3.6,3.6,0,0,1,0,3.5c-1.06,1.64-5.84,2.77-7.23,2.77s-30.31,1.23-30.31,1.23-1.14.36,0,.87,34.46-1.47,36,.16a3.71,3.71,0,0,1-1.88,5.79c-2.65.75-30.69,4.65-31.82,4.4s20.25.4,22.26,0,10.44-2.63,11.32.13-1,4.76-6,7.28S324.9,449,324.9,449a4.67,4.67,0,0,1-2.39,5.42c-3.52,2.12-22.64,5.27-27.54,3.88s-41.86-3.16-41.86-3.16Z" style="fill: rgb(181, 103, 96); transform-origin: 299.022px 438.391px;" id="elg1ubo4lna3k" class="animable"></path><path d="M304.37,450.89a96.78,96.78,0,0,1,10.23-1c5.66-.4,10.26-.61,10.27-.47a96.78,96.78,0,0,1-10.23,1C309,450.82,304.38,451,304.37,450.89Z" style="fill: rgb(138, 74, 67); transform-origin: 314.62px 450.149px;" id="eltv8ekh75huq" class="animable"></path><path d="M303.16,418.1a23.29,23.29,0,0,1-3.12.84c-1.93.48-4.59,1.18-7.48,2.09s-5.48,1.85-7.34,2.56a22.91,22.91,0,0,1-3,1.09,16.86,16.86,0,0,1,2.9-1.43,73.73,73.73,0,0,1,7.32-2.72,75.59,75.59,0,0,1,7.56-1.95A16.61,16.61,0,0,1,303.16,418.1Z" style="fill: rgb(138, 74, 67); transform-origin: 292.69px 421.39px;" id="elggfbqasl4g9" class="animable"></path><path d="M273.55,101.6a13.89,13.89,0,0,0-8.43-9.06c-1.64-.6-3.55-1-4.47-2.5-.65-1.06-.6-2.39-.87-3.61a7,7,0,0,0-8.88-4.91,8.25,8.25,0,0,1-2.68.83c-3.81,0-4.2-7.31-8-7.26a8,8,0,0,1,2,4.35,3.62,3.62,0,0,1-2.41,3.77c-4.07,1-5.83-6.88-10-6.46-2.25.23-4,3-6.16,2.43a7.58,7.58,0,0,1-2.22-1.37,5.8,5.8,0,0,0-7.77,1.59c-1.38,2.11-1.66,5.4-4.1,6-1.51.38-3-.58-4.25-1.49a15.14,15.14,0,0,0-1.6,6.64,9.08,9.08,0,0,0-8.33,9.46,19.54,19.54,0,0,0-7.13,2.35c-2.11,1.38-3.71,3.83-3.33,6.32a6.58,6.58,0,0,1,.2,1.7,3.38,3.38,0,0,1-.85,1.63c-1.5,1.86-3.45,3.4-4.49,5.56s-.67,5.3,1.54,6.21c.52.21,1.14.33,1.42.81a1.59,1.59,0,0,1,0,1.23,16.42,16.42,0,0,1-2.66,4.39,6.85,6.85,0,0,0-1.6,4.76c.25,1.7,2.11,3.21,3.68,2.51l-5.48,6.15c-1.09,1.21-2.26,2.76-1.77,4.32.64,2,3.61,2.23,5.46,1.15s3.15-2.93,5-4a12.67,12.67,0,0,0,2.28-1.27c.53-.45,1-1.09,1.63-1.23,1.36-.3,2.14,1.79,1.37,3s-2.22,1.59-3.49,2.14-2.61,1.6-2.52,3c0,.67.41,1.29.43,2,.07,2.32-3.47,2.7-4.84,4.58-1,1.38-.61,3.31-.09,4.94.64,2,2.63,4.37,4.32,3.13.59-.42.85-1.18,1.38-1.67a5.26,5.26,0,0,1,2.34-.94,10.78,10.78,0,0,0,5.32-3.26c-2.57,1.12-5.54,2.82-5.58,5.62a11.64,11.64,0,0,0,.85,3.39c.65,2.21.54,4.58,1.16,6.79s2.39,4.41,4.69,4.34a5.17,5.17,0,0,0,5.33,8.55,4.43,4.43,0,0,1,1.82-.47,3.72,3.72,0,0,1,1.77,1,11.2,11.2,0,0,0,11.61,1.12l-1.49-1.59c3.82,1.39,7.82,2.8,11.86,2.31s8.07-3.56,8.21-7.63c.06-1.76-.48-3.88.86-5,.92-.79,2.29-.67,3.49-.5l15.11,2.13c2.44.34,5,.66,7.29-.33s3.89-3.84,2.7-6a13.15,13.15,0,0,1,6.91-2.49c2.78-.18,5.55.53,8.34.48s5.88-1.14,7-3.69-1.29-6.24-3.93-5.32c2.27-3.54,9-.34,11.51-3.74,2-2.76-1-6.31-1.8-9.64,1-.83,2.36-.95,3.33-1.76,2-1.68.9-5-.69-7.11s-3.65-4.47-3-7,4.07-4.22,3.89-6.91a3,3,0,0,0-3-2.68c.52-5.17-9.24-6.13-9.53-11.32a1.62,1.62,0,0,1,1.11-1.81c1.54-.7,3.31-.58,5-.88s3.45-1.33,3.64-3-2.49-3-3.24-1.49a3.71,3.71,0,0,0-5.7-1.35c-.38-1.79-2.42-2.82-4.25-2.72a11.73,11.73,0,0,0-5.07,2" style="fill: rgb(38, 50, 56); transform-origin: 235.208px 133.036px;" id="eljgccy1cfrcq" class="animable"></path><path d="M228.66,138.47c4.65-5.37,11.83-7.84,18.85-8.89,3-.44,6-.67,8.83.34s5.25,3.53,5.31,6.51l-2.74,4.15c-3.24,7.22-11.77,10.11-17.85,15.17-2.65,2.2-5.4,5.08-8.83,4.75a7.42,7.42,0,0,1-4.61-2.58C222.85,152.65,224,143.83,228.66,138.47Z" style="fill: rgb(239, 158, 186); transform-origin: 243.103px 144.866px;" id="el394o6ysolj8" class="animable"></path><path d="M210.49,170.11a15.88,15.88,0,0,1,11.25-17c-.72-4.6,3-9,7.3-10.65s9.17-1.32,13.82-.93c7.28-8.13,21.39-8.74,29.35-1.27,8.81-4.34,19.68.37,26.53,7.41,1.67,1.72,3.24,3.62,5.33,4.79a40.63,40.63,0,0,0,4.9,1.95c9,3.62,13.93,14.2,12.77,23.81a18,18,0,0,0-.28,4.62c.29,2,1.47,3.76,2.26,5.63a15.35,15.35,0,0,1-.49,12.75c-1.71,3.32-4.69,6.18-5,9.89-.15,1.87.41,3.76.07,5.6-1,5.33-8.51,7.07-10.22,12.22-.34,1-.42,2.16-.68,3.24a9.45,9.45,0,0,1-3.77,5.46c-1.43,1-3.2,1.64-4.15,3.11a15.29,15.29,0,0,0-1.24,3.75c-1,3.08-13,10.34-16.24,10.49L210.4,215.2a15.31,15.31,0,0,1-3.8-17.31,5.58,5.58,0,0,0,.83-3,6.48,6.48,0,0,0-1.23-2.37c-3.19-5.07-.17-11.68,3.26-16.59a7.38,7.38,0,0,0,1.2-2.2A9.24,9.24,0,0,0,210.49,170.11Z" style="fill: rgb(38, 50, 56); transform-origin: 264.861px 195.002px;" id="el1towqjr56oph" class="animable"></path><path d="M305.35,179a33.17,33.17,0,0,0-14.8-13.06c-4.43-1.88-10.6-5.35-20.7-5.95-16-.94-32.17,9.06-39.11,21.78l-36.11,71.87,31.6,57.32,9.63-17.56,7.44-14.56s19.9,7.55,37.43-13.93c8.73-10.69,19.37-30.33,27.56-46.69C315.66,203.47,308.75,182.12,305.35,179Z" style="fill: rgb(181, 103, 96); transform-origin: 253.096px 235.444px;" id="eljcgpyf7gxe" class="animable"></path><path d="M247.41,240.73a5.75,5.75,0,0,1,3.4-2.26,5.88,5.88,0,0,1,6.55,2.89,7.91,7.91,0,0,1-.7,8h0a7.19,7.19,0,0,1-5.93.31,7.77,7.77,0,0,1-.88-.41,6.46,6.46,0,0,1-3.08-3.51A5.73,5.73,0,0,1,247.41,240.73Z" style="fill: rgb(138, 74, 67); transform-origin: 252.295px 244.234px;" id="el4x47tt7uazm" class="animable"></path><path d="M291.91,232.15a3.51,3.51,0,0,1-4.71,1.35,3.34,3.34,0,0,1-1.54-4.55,3.52,3.52,0,0,1,4.71-1.37A3.38,3.38,0,0,1,291.91,232.15Z" style="fill: rgb(38, 50, 56); transform-origin: 288.782px 230.544px;" id="el6minr386x9i" class="animable"></path><path d="M297.68,224.17c-.61.18-1.92-2.86-5.19-4.76s-6.62-1.65-6.74-2.26c-.07-.27.73-.76,2.21-.92a9.65,9.65,0,0,1,5.68,1.32,9.22,9.22,0,0,1,3.84,4.28C298,223.19,298,224.1,297.68,224.17Z" style="fill: rgb(38, 50, 56); transform-origin: 291.823px 220.189px;" id="eloz490hpbsd" class="animable"></path><path d="M263.55,238.84c.09-.19,2.32.64,5.86,2.13.88.4,1.77.7,2.24.21a4.9,4.9,0,0,0,.88-2.8l1.23-7.79c1.84-11,3.69-19.91,4.13-19.83s-.68,9.08-2.52,20.12q-.71,4.06-1.36,7.77c-.23,1.13-.32,2.52-1.47,3.52a2.42,2.42,0,0,1-2.08.42,6.48,6.48,0,0,1-1.53-.62C265.51,240.22,263.45,239,263.55,238.84Z" style="fill: rgb(38, 50, 56); transform-origin: 270.766px 226.714px;" id="eld4a1wag29fe" class="animable"></path><path d="M243.3,278.81a69.67,69.67,0,0,1-26.78-26.91s-1.64,22.08,23.34,33.65Z" style="fill: rgb(138, 74, 67); transform-origin: 229.899px 268.725px;" id="elou0uw46w6h" class="animable"></path><path d="M252.62,235.51c.55.27-1.51,3.82.06,8.11s5.57,6.09,5.31,6.6c-.08.25-1.24.2-2.86-.69a10.17,10.17,0,0,1-4.55-5.31,8.9,8.9,0,0,1,.17-6.67C251.48,236,252.39,235.34,252.62,235.51Z" style="fill: rgb(38, 50, 56); transform-origin: 254.008px 242.917px;" id="elitxju0nq5l" class="animable"></path><path d="M303.48,211.16c-1,.48-3.2-1.51-6.27-3s-5.93-2.1-6.16-3.19c-.08-.52.69-1.11,2.17-1.32a10.77,10.77,0,0,1,10,5C304,210,303.94,210.91,303.48,211.16Z" style="fill: rgb(38, 50, 56); transform-origin: 297.431px 207.423px;" id="elfa2f4ab1bke" class="animable"></path><path d="M249,207.12c.05.63,3.36.75,6.31,3.11s3.94,5.57,4.55,5.47c.28,0,.45-1,.06-2.4a9.66,9.66,0,0,0-3.29-4.82,9.27,9.27,0,0,0-5.38-2C249.76,206.43,248.94,206.83,249,207.12Z" style="fill: rgb(38, 50, 56); transform-origin: 254.573px 211.089px;" id="el4vq0f1pzj4c" class="animable"></path><path d="M252.88,197.05c.26,1.1,3.25,1.69,6.36,3.3s5.45,3.56,6.47,3.09c.47-.25.46-1.23-.3-2.56a10.88,10.88,0,0,0-4.48-4,10.65,10.65,0,0,0-5.86-1.16C253.57,195.93,252.79,196.52,252.88,197.05Z" style="fill: rgb(38, 50, 56); transform-origin: 259.451px 199.595px;" id="eluiq8rerwroh" class="animable"></path><path d="M221.6,206.45c1-1.76,1.4-7.11-.18-8.39-4.23-3.43-12.82-7.94-19.77,3.83-9.51,16.07,8.6,22.3,8.9,21.85S218.07,212.55,221.6,206.45Z" style="fill: rgb(181, 103, 96); transform-origin: 210.686px 209.017px;" id="elxqrn9ykd7z" class="animable"></path><path d="M209.58,215.25c0-.1-.39,0-1,0a3.29,3.29,0,0,1-2.11-1.2c-1.34-1.63-1.17-5.17.46-8.11a10.84,10.84,0,0,1,3.16-3.55,3.71,3.71,0,0,1,3.37-.9,1.65,1.65,0,0,1,1.2,1.74c0,.58-.34.84-.27.92s.5-.07.77-.81a2.06,2.06,0,0,0,0-1.38,2.46,2.46,0,0,0-1.31-1.33c-1.29-.64-3.08-.16-4.4.77a11,11,0,0,0-3.61,3.91c-1.82,3.3-2,7.31,0,9.35a3.46,3.46,0,0,0,2.81,1.09C209.32,215.62,209.62,215.31,209.58,215.25Z" style="fill: rgb(138, 74, 67); transform-origin: 209.843px 208.049px;" id="el0od41wta1loh" class="animable"></path><path d="M311.85,220.56c-2.08-3.94-2.55-7.92-.11-11.65-2.54-.61-3.12-4.67-3.29-7.27s-1.17-4.45.24-6.65a3,3,0,0,0,.6-1.41c0-.81-.62-1.45-1.17-2.05a12.5,12.5,0,0,1-2.75-11.66,26.4,26.4,0,0,1-12.13-4.6A10.1,10.1,0,0,1,278.82,166a9,9,0,0,1-7.5.82,27.15,27.15,0,0,1-6.91-3.52,10.71,10.71,0,0,1-12.19,6.94,2.57,2.57,0,0,0-2,0c-.6.4-.68,1.23-.79,1.94a8.43,8.43,0,0,1-10.28,6.44c1.45,3.59-1.57,8.16-5.44,8.23-.79,0-1.8,0-2.11.73a1.82,1.82,0,0,0,0,.9c.27,2.29.46,4.73-.56,6.81s-3.66,3.53-5.71,2.46a6,6,0,0,1,0,4.73c-.79,1.42-3,2-4.06.75-.43-.53-7.55-6.79-7.62-7.47-1-8.86,8.76-12.37,13.68-19.8s11.93-13.31,19.65-17.75a42.24,42.24,0,0,1,10.26-4.45,56.12,56.12,0,0,1,12.68-1.38c5.55-.17,11.22-.26,16.54,1.35,9.9,3,17.12,11.44,23.06,19.91A44.06,44.06,0,0,1,315.23,184c1.58,4.44,1.85,9.23,1.78,13.94-.1,6.81-.93,13.74-3.76,19.93" style="fill: rgb(38, 50, 56); transform-origin: 265.299px 186.426px;" id="elkib5wkrf8w" class="animable"></path><path d="M318.3,216.75a7.3,7.3,0,0,0,.13-2.24c0-.74-.15-1.64-.14-2.71a8.7,8.7,0,0,1,.84-3.54,28.16,28.16,0,0,1,2.39-4,20.26,20.26,0,0,0,2.65-4.87,15.5,15.5,0,0,0,.83-6.32,15.69,15.69,0,0,0-.66-3.44,23.08,23.08,0,0,0-1.45-3.38,11.45,11.45,0,0,1-1.23-3.54,15.41,15.41,0,0,1,.23-3.92,25,25,0,0,0-3.77-17,22.35,22.35,0,0,0-3.05-3.72,20.66,20.66,0,0,0-4-2.94,23.74,23.74,0,0,0-2.28-1.08c-.79-.31-1.59-.57-2.38-.86a12,12,0,0,1-4.32-2.5c-1.28-1.12-2.4-2.46-3.67-3.7a32,32,0,0,0-4.12-3.46,33,33,0,0,0-4.71-2.79,28.37,28.37,0,0,0-5.24-1.87,18.39,18.39,0,0,0-11.25.66l-1.06.44.32.05a21.65,21.65,0,0,0-29.74,1.3l.22-.09a59.45,59.45,0,0,0-7.4-.29,19.57,19.57,0,0,0-7,1.46,12.83,12.83,0,0,0-5.33,4.36,8.76,8.76,0,0,0-1.62,6.36l.17-.26a15.42,15.42,0,0,0-8.53,6.14,15.8,15.8,0,0,0-3,9,14.71,14.71,0,0,0,.14,2.22,20,20,0,0,1,.28,2.09,4,4,0,0,1-.34,1.92,11.62,11.62,0,0,1-1,1.65,30.79,30.79,0,0,0-3.38,6.23,14.94,14.94,0,0,0-1.11,5.59,9.16,9.16,0,0,0,1,4.08c.51,1,1.13,1.67,1.36,2.21a3.84,3.84,0,0,1,.31.83,2.13,2.13,0,0,0-.24-.86c-.22-.56-.83-1.22-1.31-2.24a9.08,9.08,0,0,1-.91-4,14.73,14.73,0,0,1,1.15-5.49,31.24,31.24,0,0,1,3.4-6.15,12.15,12.15,0,0,0,1.06-1.69,4.3,4.3,0,0,0,.38-2.07,19.05,19.05,0,0,0-.26-2.13,12.92,12.92,0,0,1-.13-2.16,15.49,15.49,0,0,1,2.93-8.77,15.1,15.1,0,0,1,8.3-5.93l.2-.06,0-.2a8.38,8.38,0,0,1,1.56-6,12.4,12.4,0,0,1,5.13-4.18,19.55,19.55,0,0,1,6.84-1.4,58.62,58.62,0,0,1,7.33.31H243l.09-.1a21.14,21.14,0,0,1,29-1.25l.13.13.18-.08,1-.43a17.85,17.85,0,0,1,10.9-.64,28.17,28.17,0,0,1,5.13,1.83,32.41,32.41,0,0,1,4.63,2.74,31.56,31.56,0,0,1,4.05,3.4c1.26,1.21,2.38,2.56,3.71,3.72a12.34,12.34,0,0,0,2.12,1.54,15,15,0,0,0,2.37,1c.8.29,1.6.55,2.37.84a23.65,23.65,0,0,1,2.21,1.06,19.24,19.24,0,0,1,3.87,2.85,21.64,21.64,0,0,1,3,3.62,24.62,24.62,0,0,1,3.76,16.64,15.24,15.24,0,0,0-.21,4,11.7,11.7,0,0,0,1.28,3.66,22.76,22.76,0,0,1,1.45,3.32,14.72,14.72,0,0,1,.66,3.35,15.24,15.24,0,0,1-.76,6.19,20.75,20.75,0,0,1-2.58,4.82,27.24,27.24,0,0,0-2.37,4,8.89,8.89,0,0,0-.81,3.63c0,1.08.15,2,.2,2.72a12.19,12.19,0,0,1,0,1.66A4.92,4.92,0,0,0,318.3,216.75Z" style="fill: rgb(69, 90, 100); transform-origin: 264.883px 175.739px;" id="elgn3i3f9z3we" class="animable"></path><path d="M281.85,141.14c0,.05.57,0,1.58.07a12.44,12.44,0,0,1,4.12,1,11.74,11.74,0,0,1,4.86,3.84,12.19,12.19,0,0,1,2.31,7.18,10.64,10.64,0,0,1-.26,2.29,2.36,2.36,0,0,1-1.1,1.64l-.71.32.75.19a7.72,7.72,0,0,1,4.66,3.49,7.43,7.43,0,0,1,1,4.58,8.07,8.07,0,0,1-.91,3,11.53,11.53,0,0,0-.57,1s.08-.06.22-.21a7,7,0,0,0,.52-.71,7.86,7.86,0,0,0,1.09-3.08,7.64,7.64,0,0,0-.95-4.86,8.14,8.14,0,0,0-4.93-3.78l0,.52a2.9,2.9,0,0,0,1.41-2,10.91,10.91,0,0,0,.28-2.43,12.5,12.5,0,0,0-2.45-7.48,12.06,12.06,0,0,0-9.39-4.77,8.53,8.53,0,0,0-1.18.06A1.19,1.19,0,0,0,281.85,141.14Z" style="fill: rgb(69, 90, 100); transform-origin: 290.666px 155.339px;" id="el97a8kte5n2d" class="animable"></path><path d="M244.89,144.52a3,3,0,0,0,.23.91,12.15,12.15,0,0,0,1.09,2.33,9,9,0,0,0,2.67,2.83,6.69,6.69,0,0,0,4.72,1.11l-.33-.26.09.93c0,.32.12.64.18,1a11.33,11.33,0,0,0,2.59,4.85,11.49,11.49,0,0,0,3.57,2.71,10.49,10.49,0,0,0,2.88.89,3.77,3.77,0,0,0,1.11,0,15.9,15.9,0,0,1-3.81-1.29,11.62,11.62,0,0,1-3.36-2.7,11,11,0,0,1-2.43-4.63c-.06-.31-.13-.61-.18-.91s-.06-.59-.08-.88l0-.31-.29.05a6.27,6.27,0,0,1-4.35-1,8.78,8.78,0,0,1-2.62-2.61C245.36,145.77,245,144.48,244.89,144.52Z" style="fill: rgb(69, 90, 100); transform-origin: 254.29px 153.19px;" id="el7yy6nk7ngxt" class="animable"></path><path d="M227.68,154.58s-.07.1-.14.32a3.24,3.24,0,0,0-.09,1,5,5,0,0,0,1.6,3.23,9.44,9.44,0,0,0,4.91,2.17,31,31,0,0,0,3.14.47,5.06,5.06,0,0,0,3.4-.74l.26-.2-.45-.11a21,21,0,0,0,3.13,5.65,9.61,9.61,0,0,0,4.27,3.1,6.86,6.86,0,0,0,3.53.34,4,4,0,0,0,.93-.26c.2-.08.31-.13.3-.15s-.45.11-1.26.2a7.23,7.23,0,0,1-3.37-.5,9.57,9.57,0,0,1-4-3.05,21.92,21.92,0,0,1-3-5.54l-.14-.35-.31.25-.21.17a4.64,4.64,0,0,1-3,.64,29.1,29.1,0,0,1-3.07-.43,9.3,9.3,0,0,1-4.73-1.95,4.9,4.9,0,0,1-1.66-3A7.69,7.69,0,0,1,227.68,154.58Z" style="fill: rgb(69, 90, 100); transform-origin: 239.957px 162.242px;" id="eli9dwwwx39fq" class="animable"></path><path d="M243.76,86.84s.27.17.68.58a4.29,4.29,0,0,1,1.13,2.21,5.78,5.78,0,0,1-.57,3.79,17.12,17.12,0,0,1-3.15,4.06l-.22.22.28.15a10.62,10.62,0,0,1,4.6,4.94,8.25,8.25,0,0,1-.21,7.44,7.67,7.67,0,0,1-5.47,4l-.79.11.7.4a9.61,9.61,0,0,1,4.57,6.24,9.24,9.24,0,0,1-.81,6.15,9.93,9.93,0,0,1-2.61,3.26c-.76.62-1.25.87-1.23.91a1.33,1.33,0,0,0,.37-.16,6.07,6.07,0,0,0,1-.61,9.57,9.57,0,0,0,2.8-3.24,9.47,9.47,0,0,0,.95-6.41,10,10,0,0,0-4.76-6.62l-.09.51a8.14,8.14,0,0,0,5.88-4.3,8.26,8.26,0,0,0,1.06-4,9.25,9.25,0,0,0-.85-3.89,11,11,0,0,0-4.87-5.14l.06.37a16.92,16.92,0,0,0,3.16-4.21,6.06,6.06,0,0,0,.49-4,4.15,4.15,0,0,0-1.3-2.25,2.22,2.22,0,0,0-.57-.39A.59.59,0,0,0,243.76,86.84Z" style="fill: rgb(69, 90, 100); transform-origin: 243.955px 109.07px;" id="elgahh1gp6964" class="animable"></path><path d="M194.64,105.17a1.09,1.09,0,0,0,.18.31,8.78,8.78,0,0,0,.59.84,13.54,13.54,0,0,0,2.83,2.62,14.75,14.75,0,0,0,5.43,2.33,14.23,14.23,0,0,0,7.51-.41l-.35-.25a11.93,11.93,0,0,0,4.39,9.2,9,9,0,0,0,10.53.38l-.41-.26a7.49,7.49,0,0,0,.36,3.87,9.74,9.74,0,0,0,1.78,3,13.72,13.72,0,0,0,4.62,3.37,26.68,26.68,0,0,0,3.47,1.32,6.35,6.35,0,0,0,1.29.34,9.88,9.88,0,0,0-1.23-.5,34.7,34.7,0,0,1-3.39-1.45,13.61,13.61,0,0,1-4.43-3.36,8.1,8.1,0,0,1-2-6.52l.13-.65-.54.39a8.52,8.52,0,0,1-9.88-.41,11.43,11.43,0,0,1-4.2-8.76v-.36l-.34.12a13.81,13.81,0,0,1-7.25.47,14.61,14.61,0,0,1-5.34-2.16A17.37,17.37,0,0,1,194.64,105.17Z" style="fill: rgb(69, 90, 100); transform-origin: 215.75px 118.5px;" id="elahkz9mw18w8" class="animable"></path><path d="M197.91,138.62a.66.66,0,0,0,0,.41,1.93,1.93,0,0,0,.68.94,8.65,8.65,0,0,0,3.91,1.47,10.1,10.1,0,0,0,6.1-1.06,10.33,10.33,0,0,0,4.91-5.73l0-.06-.5.07a12.17,12.17,0,0,0,6,4.64,13.54,13.54,0,0,0,6.14.72,15,15,0,0,0,4-1,5.82,5.82,0,0,0,1.36-.68,23.3,23.3,0,0,1-5.44,1.3,13.56,13.56,0,0,1-5.92-.82,11.84,11.84,0,0,1-5.67-4.46l-.3-.47-.2.53,0,.05A9.8,9.8,0,0,1,202.57,141a9,9,0,0,1-3.83-1.25A1.92,1.92,0,0,1,197.91,138.62Z" style="fill: rgb(69, 90, 100); transform-origin: 214.194px 137.714px;" id="ele8plpshn8l5" class="animable"></path><path d="M278.74,107.87a15.61,15.61,0,0,1-2.14,5.39,12.61,12.61,0,0,1-12,5.7,12.75,12.75,0,0,1-4.25-1.19l-.31-.15L260,118a16.32,16.32,0,0,1-2.43,5.56,17,17,0,0,1-3.29,3.57,12.1,12.1,0,0,1-1.5,1.06,1.41,1.41,0,0,1-1.23.16.93.93,0,0,1-.54-.57c-.05-.18,0-.29,0-.29a.38.38,0,0,0-.06.3,1,1,0,0,0,.55.73,1.58,1.58,0,0,0,1.44-.09,10.24,10.24,0,0,0,1.59-1,16.37,16.37,0,0,0,6.05-9.29l-.39.19A13.25,13.25,0,0,0,272.3,118a13.15,13.15,0,0,0,4.64-4.47,12.49,12.49,0,0,0,1.63-4,8.34,8.34,0,0,0,.17-1.17A1.16,1.16,0,0,0,278.74,107.87Z" style="fill: rgb(69, 90, 100); transform-origin: 264.854px 118.261px;" id="elu6waxysya9" class="animable"></path><path d="M201.73,217.63a2,2,0,0,0-1,.28,4.68,4.68,0,0,0-2,2,4.6,4.6,0,0,0-.14,4.18,5.36,5.36,0,0,0,4.13,3,5.67,5.67,0,0,0,4.77-1.88,5.55,5.55,0,0,0,1.38-4,6,6,0,0,0-.78-2.72,2.36,2.36,0,0,0-.65-.81,7.11,7.11,0,0,0,.44.92,6.2,6.2,0,0,1,.58,2.62,5.21,5.21,0,0,1-5.67,5.26,4.88,4.88,0,0,1-3.71-2.67,4.25,4.25,0,0,1,0-3.77,4.73,4.73,0,0,1,1.76-2C201.39,217.78,201.75,217.68,201.73,217.63Z" style="fill: rgb(38, 50, 56); transform-origin: 203.517px 222.372px;" id="el4e5mbdvlrrm" class="animable"></path></g><g id="freepik--Tubes--inject-21" class="animable" style="transform-origin: 67.555px 435.87px;"><path d="M82.86,410l.53,47.44a4.94,4.94,0,0,0,4.93,4.77h0a5,5,0,0,0,5-5.09v-47Z" style="fill: rgb(224, 224, 224); transform-origin: 88.0904px 436.105px;" id="elfqlg50bvh58" class="animable"></path><path d="M82.86,410h2.71l7.71,0h.12v.11c0,5.43,0,12.69.06,21.18,0,4.25,0,8.81,0,13.6,0,2.39,0,4.85,0,7.35V456a18.47,18.47,0,0,1-.06,1.95,5.12,5.12,0,0,1-.65,1.89,5.15,5.15,0,0,1-9.53-1.78,10.79,10.79,0,0,1-.08-1.49c0-.48,0-1,0-1.45,0-1,0-1.92,0-2.86,0-1.9,0-3.75,0-5.55C83,439.51,83,433,82.93,427.55s-.06-9.82-.08-12.88c0-1.5,0-2.67,0-3.49,0-.37,0-.67,0-.89a1.36,1.36,0,0,1,0-.3s0,.12,0,.33,0,.53,0,.92c0,.83,0,2,.07,3.53,0,3.08.13,7.48.22,12.92s.17,11.91.27,19.09c0,1.79.05,3.63.07,5.51q0,1.41,0,2.85c0,.47,0,1,0,1.44a11.14,11.14,0,0,0,.07,1.43A4.74,4.74,0,0,0,93,457.9a16.61,16.61,0,0,0,0-1.88v-3.79q0-3.75,0-7.35c0-4.79,0-9.35,0-13.6,0-8.49,0-15.75.07-21.18l.12.12-7.64-.15L83.58,410h-.53Z" style="fill: rgb(38, 50, 56); transform-origin: 88.1531px 436.19px;" id="elhomo6uavkip" class="animable"></path><path d="M84.2,434.32l0,22.59a4.18,4.18,0,0,0,4.18,4h0a4.18,4.18,0,0,0,4.19-4.3l-.17-22.23Z" style="fill: rgb(239, 158, 186); transform-origin: 88.3859px 447.615px;" id="eljnhkobua3uq" class="animable"></path><rect x="79.78" y="406.6" width="16.56" height="10.18" rx="2.19" style="fill: rgb(239, 158, 186); transform-origin: 88.06px 411.69px;" id="el479bomb3rhe" class="animable"></rect><path d="M81,416.65a60.23,60.23,0,0,1,0-10,60.23,60.23,0,0,1,0,10Z" style="fill: rgb(38, 50, 56); transform-origin: 81px 411.65px;" id="elsrdybqufcj" class="animable"></path><path d="M83.3,416.65a60.23,60.23,0,0,1,0-10,60.23,60.23,0,0,1,0,10Z" style="fill: rgb(38, 50, 56); transform-origin: 83.3px 411.65px;" id="el22llmbbeqhii" class="animable"></path><path d="M85.63,416.65a60.23,60.23,0,0,1,0-10,60.23,60.23,0,0,1,0,10Z" style="fill: rgb(38, 50, 56); transform-origin: 85.63px 411.65px;" id="el4olommkcgnv" class="animable"></path><path d="M88,416.65a60.23,60.23,0,0,1,0-10,60.23,60.23,0,0,1,0,10Z" style="fill: rgb(38, 50, 56); transform-origin: 88px 411.65px;" id="elx0fx2cxvk3f" class="animable"></path><path d="M90.29,416.65a60.23,60.23,0,0,1,0-10,60.23,60.23,0,0,1,0,10Z" style="fill: rgb(38, 50, 56); transform-origin: 90.29px 411.65px;" id="eld8zu9ukcdwf" class="animable"></path><path d="M92.62,416.65a60.23,60.23,0,0,1,0-10,60.23,60.23,0,0,1,0,10Z" style="fill: rgb(38, 50, 56); transform-origin: 92.62px 411.65px;" id="elaolcrpxengv" class="animable"></path><path d="M95,416.65a60.23,60.23,0,0,1,0-10,60.23,60.23,0,0,1,0,10Z" style="fill: rgb(38, 50, 56); transform-origin: 95px 411.65px;" id="el4095o25e76v" class="animable"></path><path d="M61.28,410l.53,47.44a4.94,4.94,0,0,0,4.93,4.77h0a5,5,0,0,0,5-5.09v-47Z" style="fill: rgb(224, 224, 224); transform-origin: 66.5104px 436.105px;" id="el26eivgseyv7" class="animable"></path><path d="M61.28,410H64l7.71,0h.12v.11c0,5.43,0,12.69.06,21.18,0,4.25,0,8.81,0,13.6V456a16.08,16.08,0,0,1-.05,1.95,5.12,5.12,0,0,1-.65,1.89,5.15,5.15,0,0,1-9.53-1.78,10.79,10.79,0,0,1-.08-1.49c0-.48,0-1,0-1.45,0-1,0-1.92,0-2.86,0-1.9,0-3.75,0-5.55-.06-7.21-.11-13.71-.16-19.17s-.05-9.82-.07-12.88c0-1.5,0-2.67,0-3.49,0-.37,0-.67,0-.89a1.36,1.36,0,0,1,0-.3s0,.12,0,.33,0,.53,0,.92c0,.83,0,2,.07,3.53,0,3.08.13,7.48.21,12.92s.17,11.91.28,19.09c0,1.79,0,3.63.07,5.51l0,2.85c0,.47,0,1,0,1.44a11.14,11.14,0,0,0,.07,1.43,4.74,4.74,0,0,0,9.37-.11,16.61,16.61,0,0,0,0-1.88V444.88c0-4.79,0-9.35,0-13.6,0-8.49,0-15.75.07-21.18l.12.12-7.65-.15L62,410h-.53Z" style="fill: rgb(38, 50, 56); transform-origin: 66.5899px 436.185px;" id="elauxzizvguoe" class="animable"></path><path d="M62.62,434.32l.05,22.59a4.18,4.18,0,0,0,4.18,4h0a4.18,4.18,0,0,0,4.19-4.3l-.17-22.23Z" style="fill: rgb(239, 158, 186); transform-origin: 66.8309px 447.615px;" id="elc7er43jdyhw" class="animable"></path><rect x="58.2" y="406.6" width="16.56" height="10.18" rx="2.19" style="fill: rgb(239, 158, 186); transform-origin: 66.48px 411.69px;" id="el5vg8x90qscy" class="animable"></rect><path d="M59.38,416.65a63.23,63.23,0,0,1,0-10,60.23,60.23,0,0,1,0,10Z" style="fill: rgb(38, 50, 56); transform-origin: 59.3849px 411.65px;" id="elkuse16jnwvf" class="animable"></path><path d="M61.72,416.65a60.23,60.23,0,0,1,0-10,63.23,63.23,0,0,1,0,10Z" style="fill: rgb(38, 50, 56); transform-origin: 61.715px 411.65px;" id="el4lgulbdy0so" class="animable"></path><path d="M64.05,416.65a60.23,60.23,0,0,1,0-10,63.23,63.23,0,0,1,0,10Z" style="fill: rgb(38, 50, 56); transform-origin: 64.0451px 411.65px;" id="elie55ikexds" class="animable"></path><path d="M66.38,416.65a60.23,60.23,0,0,1,0-10,60.23,60.23,0,0,1,0,10Z" style="fill: rgb(38, 50, 56); transform-origin: 66.38px 411.65px;" id="elchtgb2ykb0c" class="animable"></path><path d="M68.71,416.65a60.23,60.23,0,0,1,0-10,60.23,60.23,0,0,1,0,10Z" style="fill: rgb(38, 50, 56); transform-origin: 68.71px 411.65px;" id="elg0f6pfhidjv" class="animable"></path><path d="M71,416.65a60.23,60.23,0,0,1,0-10,60.23,60.23,0,0,1,0,10Z" style="fill: rgb(38, 50, 56); transform-origin: 71px 411.65px;" id="eln09eefsptd" class="animable"></path><path d="M73.37,416.65a60.23,60.23,0,0,1,0-10,60.23,60.23,0,0,1,0,10Z" style="fill: rgb(38, 50, 56); transform-origin: 73.37px 411.65px;" id="elw3br0knn5fa" class="animable"></path><path d="M39.7,410l.52,47.44a5,5,0,0,0,4.94,4.77h0a5,5,0,0,0,5-5.09v-47Z" style="fill: rgb(224, 224, 224); transform-origin: 44.9304px 436.105px;" id="el53g917z3t4x" class="animable"></path><path d="M39.7,410h2.7l7.72,0h.11v.11c0,5.43,0,12.69.07,21.18,0,4.25,0,8.81,0,13.6V456a16.08,16.08,0,0,1,0,1.95,5.12,5.12,0,0,1-.65,1.89,5.15,5.15,0,0,1-9.53-1.78,9.43,9.43,0,0,1-.08-1.49c0-.48,0-1,0-1.45,0-1,0-1.92,0-2.86,0-1.9,0-3.75,0-5.55-.06-7.21-.11-13.71-.16-19.17s0-9.82-.07-12.88c0-1.5,0-2.67,0-3.49v-.89a1.71,1.71,0,0,1,0-.3s0,.12,0,.33,0,.53,0,.92c0,.83,0,2,.07,3.53,0,3.08.12,7.48.21,12.92s.17,11.91.28,19.09c0,1.79,0,3.63.07,5.51q0,1.41,0,2.85c0,.47,0,1,0,1.44a11.14,11.14,0,0,0,.07,1.43,4.74,4.74,0,0,0,8.77,1.63,4.94,4.94,0,0,0,.6-1.74c.08-.6,0-1.24,0-1.88V444.88c0-4.79,0-9.35,0-13.6,0-8.49,0-15.75.07-21.18l.12.12-7.65-.15-2-.05h-.53Z" style="fill: rgb(38, 50, 56); transform-origin: 45.0148px 436.185px;" id="eltc7vinagzif" class="animable"></path><path d="M41,434.32l.05,22.59a4.17,4.17,0,0,0,4.17,4h0a4.18,4.18,0,0,0,4.19-4.3l-.16-22.23Z" style="fill: rgb(239, 158, 186); transform-origin: 45.2059px 447.615px;" id="el8x83i3rxzu" class="animable"></path><rect x="36.62" y="406.6" width="16.56" height="10.18" rx="2.19" style="fill: rgb(239, 158, 186); transform-origin: 44.9px 411.69px;" id="elifggvo1vj7" class="animable"></rect><path d="M37.8,416.65a60.23,60.23,0,0,1,0-10,60.23,60.23,0,0,1,0,10Z" style="fill: rgb(38, 50, 56); transform-origin: 37.8px 411.65px;" id="eljb3o3ay5h1" class="animable"></path><path d="M40.13,416.65a60.23,60.23,0,0,1,0-10,60.23,60.23,0,0,1,0,10Z" style="fill: rgb(38, 50, 56); transform-origin: 40.13px 411.65px;" id="elqf4gtnq5qxr" class="animable"></path><path d="M42.46,416.65a63.23,63.23,0,0,1,0-10,60.23,60.23,0,0,1,0,10Z" style="fill: rgb(38, 50, 56); transform-origin: 42.4649px 411.65px;" id="elajdn8r4w1b6" class="animable"></path><path d="M44.79,416.65a63.23,63.23,0,0,1,0-10,60.23,60.23,0,0,1,0,10Z" style="fill: rgb(38, 50, 56); transform-origin: 44.7949px 411.65px;" id="el4fhtq3kr0qj" class="animable"></path><path d="M47.12,416.65a63.23,63.23,0,0,1,0-10,60.23,60.23,0,0,1,0,10Z" style="fill: rgb(38, 50, 56); transform-origin: 47.1249px 411.65px;" id="elpiyznvgp5" class="animable"></path><path d="M49.46,416.65a60.23,60.23,0,0,1,0-10,63.23,63.23,0,0,1,0,10Z" style="fill: rgb(38, 50, 56); transform-origin: 49.455px 411.65px;" id="elk243k9ljhv" class="animable"></path><path d="M51.79,416.65a60.23,60.23,0,0,1,0-10,63.23,63.23,0,0,1,0,10Z" style="fill: rgb(38, 50, 56); transform-origin: 51.7851px 411.65px;" id="el1r2o8nvrbee" class="animable"></path><rect x="26.48" y="421.48" width="82.15" height="3.24" rx="1.28" style="fill: rgb(69, 90, 100); transform-origin: 67.555px 423.1px;" id="elsl6h1edhs5" class="animable"></rect><rect x="26.48" y="461.9" width="82.15" height="3.24" style="fill: rgb(69, 90, 100); transform-origin: 67.555px 463.52px;" id="elrfhxno0q94f" class="animable"></rect><rect x="30.87" y="423.1" width="3.66" height="40.42" style="fill: rgb(69, 90, 100); transform-origin: 32.7px 443.31px;" id="elbfi96iscftl" class="animable"></rect><rect x="100.47" y="423.1" width="3.66" height="40.42" style="fill: rgb(69, 90, 100); transform-origin: 102.3px 443.31px;" id="elilm67p28hg" class="animable"></rect></g><defs>     <filter id="active" height="200%">         <feMorphology in="SourceAlpha" result="DILATED" operator="dilate" radius="2"></feMorphology>                <feFlood flood-color="#32DFEC" flood-opacity="1" result="PINK"></feFlood>        <feComposite in="PINK" in2="DILATED" operator="in" result="OUTLINE"></feComposite>        <feMerge>            <feMergeNode in="OUTLINE"></feMergeNode>            <feMergeNode in="SourceGraphic"></feMergeNode>        </feMerge>    </filter>    <filter id="hover" height="200%">        <feMorphology in="SourceAlpha" result="DILATED" operator="dilate" radius="2"></feMorphology>                <feFlood flood-color="#ff0000" flood-opacity="0.5" result="PINK"></feFlood>        <feComposite in="PINK" in2="DILATED" operator="in" result="OUTLINE"></feComposite>        <feMerge>            <feMergeNode in="OUTLINE"></feMergeNode>            <feMergeNode in="SourceGraphic"></feMergeNode>        </feMerge>            <feColorMatrix type="matrix" values="0   0   0   0   0                0   1   0   0   0                0   0   0   0   0                0   0   0   1   0 "></feColorMatrix>    </filter></defs></svg>